<svg 
 xmlns="http://www.w3.org/2000/svg"
 xmlns:xlink="http://www.w3.org/1999/xlink"
 width="70px" height="95px" viewBox="0 0 600 700">
<defs>
<filter id="Filter_0">
    <feFlood flood-color="rgb(252, 158, 1)" flood-opacity="1" result="floodOut" />
    <feComposite operator="atop" in="floodOut" in2="SourceGraphic" result="compOut" />
    <feBlend mode="normal" in="compOut" in2="SourceGraphic" />
</filter>

</defs>
<g filter="url(#Filter_0)">
<path fill-rule="evenodd"  fill="rgb(143, 45, 86)"
 d="M547.389,362.643 L541.984,371.342 L506.743,348.255 L498.784,361.065 L492.009,356.627 L513.332,322.308 L520.107,326.746 L512.148,339.556 L547.389,362.643 ZM482.361,387.479 L493.928,395.107 L504.047,378.934 L510.809,383.394 L500.689,399.567 L517.534,410.676 L512.214,419.179 L470.279,391.523 L487.952,363.279 L494.713,367.739 L482.361,387.479 ZM477.901,407.325 C481.087,408.211 484.222,409.713 487.307,411.834 C490.392,413.955 492.939,416.358 494.948,419.042 C496.957,421.728 498.356,424.589 499.144,427.625 C499.919,430.596 500.048,433.647 499.530,436.778 C499.012,439.909 497.769,442.981 495.800,445.993 C493.831,449.007 491.534,451.353 488.907,453.035 C486.280,454.716 483.464,455.757 480.458,456.157 C477.452,456.557 474.356,456.315 471.171,455.429 C467.986,454.545 464.851,453.041 461.765,450.920 C458.681,448.800 456.133,446.398 454.124,443.712 C452.115,441.027 450.720,438.183 449.938,435.179 C449.156,432.175 449.015,429.101 449.512,425.956 C450.011,422.812 451.244,419.734 453.213,416.720 C455.182,413.708 457.490,411.368 460.136,409.699 C462.783,408.032 465.608,406.997 468.614,406.597 C471.621,406.197 474.716,406.440 477.901,407.325 ZM464.394,417.602 C462.816,418.503 461.452,419.832 460.301,421.593 C459.151,423.353 458.470,425.154 458.258,426.992 C458.047,428.832 458.272,430.631 458.934,432.389 C459.596,434.149 460.651,435.866 462.102,437.544 C463.553,439.221 465.332,440.785 467.441,442.235 C469.550,443.684 471.637,444.778 473.701,445.517 C475.765,446.255 477.706,446.598 479.524,446.543 C481.342,446.489 483.041,446.012 484.619,445.112 C486.197,444.213 487.562,442.882 488.712,441.121 C489.863,439.361 490.554,437.568 490.784,435.742 C490.976,433.889 490.751,432.091 490.109,430.345 C489.467,428.599 488.421,426.888 486.970,425.210 C485.519,423.533 483.740,421.969 481.631,420.520 C479.522,419.070 477.435,417.976 475.371,417.238 C473.307,416.499 471.357,416.151 469.518,416.191 C467.681,416.233 465.973,416.703 464.394,417.602 ZM433.964,468.922 C434.690,469.456 435.471,469.727 436.306,469.733 C437.142,469.740 438.021,469.562 438.943,469.197 C439.866,468.833 440.830,468.326 441.837,467.675 C442.845,467.026 443.896,466.293 444.991,465.476 C446.600,464.342 448.313,463.182 450.130,461.998 C451.947,460.814 453.835,459.900 455.794,459.255 C457.754,458.611 459.765,458.367 461.828,458.524 C463.890,458.682 465.972,459.533 468.072,461.080 C469.981,462.487 471.402,464.114 472.335,465.961 C473.268,467.809 473.766,469.799 473.831,471.934 C473.895,474.069 473.523,476.290 472.715,478.593 C471.906,480.898 470.711,483.178 469.127,485.432 C467.194,488.183 464.908,490.631 462.271,492.777 C459.633,494.922 456.939,496.634 454.186,497.912 L450.112,490.474 C451.134,490.009 452.208,489.408 453.334,488.672 C454.460,487.936 455.571,487.117 456.669,486.214 C457.767,485.313 458.814,484.358 459.810,483.352 C460.807,482.347 461.680,481.309 462.432,480.239 C464.016,477.984 464.808,475.973 464.806,474.202 C464.804,472.432 464.115,471.040 462.741,470.027 C461.825,469.352 460.874,469.015 459.889,469.014 C458.904,469.014 457.873,469.224 456.793,469.647 C455.714,470.070 454.604,470.659 453.465,471.414 C452.326,472.170 451.144,472.966 449.918,473.803 C448.337,474.899 446.697,475.996 444.998,477.094 C443.300,478.192 441.549,479.033 439.747,479.619 C437.944,480.205 436.119,480.412 434.270,480.238 C432.422,480.066 430.524,479.261 428.576,477.827 C426.744,476.476 425.373,474.901 424.465,473.101 C423.557,471.301 423.089,469.391 423.060,467.369 C423.033,465.348 423.401,463.257 424.166,461.094 C424.933,458.933 426.066,456.782 427.570,454.642 C429.181,452.349 431.085,450.258 433.283,448.368 C435.480,446.478 437.955,444.894 440.707,443.616 L444.781,451.054 C442.852,452.068 440.946,453.318 439.063,454.801 C437.181,456.285 435.648,457.867 434.466,459.548 C433.903,460.351 433.422,461.201 433.024,462.096 C432.626,462.992 432.382,463.856 432.290,464.687 C432.198,465.519 432.282,466.305 432.543,467.048 C432.803,467.791 433.277,468.415 433.964,468.922 ZM434.238,502.300 C434.042,501.003 433.816,499.725 433.559,498.467 C433.302,497.211 432.991,495.925 432.628,494.611 L440.667,492.832 C441.056,494.347 441.387,495.798 441.661,497.189 C441.935,498.579 442.192,499.973 442.433,501.366 L451.427,500.448 L452.253,509.033 L443.174,510.062 C443.315,517.013 441.685,522.684 438.287,527.073 C436.916,528.844 435.409,530.267 433.769,531.339 C432.128,532.412 430.457,533.116 428.757,533.451 C427.057,533.786 425.361,533.750 423.667,533.340 C421.973,532.931 420.370,532.115 418.855,530.891 C417.564,529.846 416.544,528.663 415.798,527.340 C415.052,526.017 414.500,524.597 414.144,523.079 C413.788,521.563 413.572,519.963 413.493,518.280 C413.415,516.598 413.431,514.871 413.541,513.101 C410.791,513.397 408.359,513.381 406.243,513.050 C404.128,512.721 402.240,511.883 400.578,510.540 C399.286,509.496 398.277,508.262 397.551,506.834 C396.825,505.408 396.410,503.888 396.308,502.276 C396.205,500.664 396.423,499.027 396.961,497.361 C397.500,495.698 398.354,494.109 399.525,492.596 C400.696,491.084 402.012,489.869 403.473,488.950 C404.935,488.033 406.436,487.431 407.976,487.146 C409.517,486.862 411.047,486.900 412.569,487.260 C414.091,487.621 415.498,488.323 416.790,489.367 C417.824,490.203 418.657,491.162 419.291,492.243 C419.924,493.325 420.409,494.482 420.746,495.713 C421.083,496.946 421.293,498.224 421.376,499.551 C421.459,500.878 421.486,502.219 421.457,503.575 L434.238,502.300 ZM413.492,499.791 C413.114,498.496 412.446,497.461 411.485,496.685 C410.488,495.879 409.438,495.570 408.333,495.756 C407.228,495.943 406.304,496.516 405.562,497.475 C404.819,498.435 404.493,499.476 404.584,500.598 C404.675,501.722 405.219,502.686 406.216,503.491 C407.139,504.238 408.298,504.621 409.694,504.639 C411.090,504.658 412.541,504.586 414.047,504.423 C414.055,502.631 413.870,501.087 413.492,499.791 ZM421.061,512.342 C421.001,514.513 421.136,516.511 421.464,518.335 C421.792,520.160 422.620,521.608 423.949,522.683 C425.279,523.757 426.646,524.084 428.054,523.661 C429.461,523.239 430.721,522.308 431.835,520.870 C432.778,519.652 433.491,518.190 433.973,516.480 C434.456,514.772 434.754,512.914 434.868,510.906 L421.061,512.342 ZM377.911,559.921 L372.337,565.604 L343.470,536.346 L349.044,530.663 L359.819,541.584 L388.814,512.020 L396.131,519.436 L367.136,549.000 L377.911,559.921 ZM366.054,506.164 C364.910,507.323 363.655,508.188 362.291,508.758 C360.927,509.328 359.486,509.688 357.969,509.836 C356.453,509.985 354.869,509.981 353.217,509.827 C351.566,509.672 349.880,509.416 348.161,509.059 C348.187,511.877 347.938,514.331 347.412,516.421 C346.887,518.511 345.888,520.302 344.417,521.793 C343.273,522.952 341.969,523.800 340.505,524.335 C339.042,524.870 337.517,525.077 335.931,524.957 C334.346,524.836 332.767,524.389 331.192,523.614 C329.618,522.840 328.147,521.757 326.781,520.364 C325.415,518.972 324.355,517.474 323.596,515.871 C322.840,514.268 322.396,512.668 322.265,511.074 C322.136,509.479 322.319,507.938 322.817,506.452 C323.315,504.966 324.136,503.642 325.280,502.482 C326.196,501.554 327.213,500.846 328.330,500.357 C329.448,499.868 330.625,499.539 331.860,499.370 C333.097,499.200 334.367,499.166 335.671,499.266 C336.976,499.366 338.289,499.526 339.611,499.744 L339.589,486.661 C338.303,486.678 337.033,486.729 335.779,486.814 C334.527,486.899 333.241,487.034 331.922,487.219 L330.954,478.854 C332.471,478.671 333.921,478.539 335.306,478.455 C336.692,478.372 338.078,478.305 339.463,478.256 L339.428,469.047 L347.896,469.405 L348.031,478.716 C354.837,479.539 360.222,481.972 364.186,486.013 C365.785,487.643 367.030,489.362 367.921,491.167 C368.812,492.973 369.340,494.758 369.504,496.521 C369.669,498.284 369.471,499.992 368.908,501.646 C368.346,503.299 367.395,504.805 366.054,506.164 ZM335.150,507.260 C333.849,507.462 332.773,507.993 331.923,508.855 C331.040,509.750 330.637,510.768 330.713,511.909 C330.790,513.050 331.261,514.064 332.127,514.946 C332.994,515.830 333.980,516.303 335.085,516.367 C336.192,516.431 337.186,516.016 338.069,515.121 C338.886,514.293 339.372,513.175 339.523,511.768 C339.676,510.361 339.745,508.887 339.730,507.343 C337.979,507.086 336.452,507.058 335.150,507.260 ZM359.871,495.872 C359.593,494.392 358.805,492.990 357.505,491.666 C356.406,490.545 355.046,489.622 353.421,488.897 C351.798,488.172 350.010,487.614 348.059,487.220 L348.140,501.360 C350.255,501.722 352.220,501.864 354.034,501.786 C355.850,501.708 357.344,501.073 358.521,499.880 C359.698,498.687 360.149,497.352 359.871,495.872 ZM357.696,153.976 L350.130,150.345 C351.067,148.352 351.849,146.182 352.477,143.833 C353.103,141.484 353.395,139.266 353.351,137.178 C353.330,136.182 353.215,135.197 353.008,134.225 C352.801,133.251 352.490,132.397 352.079,131.662 C351.666,130.926 351.141,130.333 350.501,129.883 C349.862,129.431 349.122,129.206 348.282,129.206 C347.395,129.206 346.618,129.455 345.953,129.953 C345.286,130.451 344.694,131.127 344.176,131.981 C343.657,132.835 343.188,133.832 342.769,134.970 C342.349,136.109 341.944,137.342 341.552,138.671 C340.938,140.568 340.257,142.550 339.508,144.614 C338.758,146.678 337.795,148.564 336.618,150.272 C335.440,151.980 333.989,153.391 332.263,154.506 C330.536,155.620 328.389,156.178 325.823,156.178 C323.489,156.177 321.414,155.702 319.598,154.753 C317.781,153.803 316.225,152.475 314.929,150.767 C313.632,149.058 312.632,147.018 311.929,144.645 C311.226,142.272 310.844,139.687 310.785,136.887 C310.712,133.471 311.096,130.090 311.935,126.745 C312.774,123.400 313.911,120.376 315.348,117.671 L322.914,121.302 C322.376,122.298 321.875,123.437 321.412,124.718 C320.949,125.999 320.545,127.339 320.202,128.739 C319.858,130.138 319.585,131.551 319.382,132.974 C319.178,134.398 319.091,135.773 319.119,137.102 C319.178,139.901 319.724,142.024 320.759,143.472 C321.793,144.919 323.150,145.644 324.830,145.644 C325.950,145.644 326.900,145.347 327.681,144.755 C328.462,144.161 329.157,143.367 329.766,142.371 C330.375,141.374 330.910,140.223 331.373,138.919 C331.835,137.613 332.307,136.250 332.791,134.827 C333.405,132.976 334.065,131.090 334.771,129.169 C335.476,127.247 336.373,125.503 337.460,123.938 C338.547,122.372 339.873,121.102 341.440,120.130 C343.005,119.158 344.979,118.672 347.359,118.672 C349.599,118.673 351.604,119.136 353.373,120.061 C355.143,120.987 356.628,122.268 357.830,123.905 C359.030,125.542 359.958,127.475 360.612,129.706 C361.266,131.936 361.621,134.379 361.678,137.037 C361.738,139.884 361.449,142.742 360.809,145.613 C360.170,148.484 359.132,151.271 357.696,153.976 ZM339.206,81.177 C338.457,82.545 337.417,83.697 336.086,84.630 C335.020,85.377 333.893,85.890 332.705,86.170 C331.515,86.450 330.295,86.562 329.045,86.508 C327.794,86.453 326.533,86.260 325.261,85.928 C323.989,85.598 322.719,85.207 321.450,84.757 L319.211,97.591 C320.485,97.803 321.749,97.980 323.003,98.121 C324.255,98.261 325.549,98.358 326.885,98.413 L326.396,106.788 C324.865,106.696 323.409,106.568 322.026,106.402 C320.642,106.236 319.261,106.054 317.884,105.856 L316.327,114.892 L308.020,113.030 L309.496,103.875 C302.911,101.853 298.010,98.505 294.791,93.834 C293.493,91.950 292.559,90.043 291.990,88.113 C291.421,86.183 291.208,84.339 291.350,82.580 C291.492,80.822 291.983,79.182 292.825,77.661 C293.666,76.140 294.866,74.834 296.427,73.740 C297.758,72.807 299.147,72.183 300.594,71.868 C302.040,71.553 303.526,71.457 305.051,71.582 C306.575,71.707 308.140,71.993 309.746,72.440 C311.351,72.887 312.972,73.438 314.610,74.095 C315.071,71.327 315.741,68.965 316.622,67.009 C317.502,65.053 318.798,63.476 320.510,62.276 C321.841,61.344 323.276,60.745 324.815,60.482 C326.354,60.218 327.897,60.287 329.442,60.688 C330.988,61.090 332.471,61.810 333.895,62.851 C335.316,63.892 336.582,65.216 337.692,66.826 C338.801,68.435 339.591,70.094 340.063,71.801 C340.533,73.508 340.696,75.156 340.550,76.743 C340.402,78.330 339.954,79.808 339.206,81.177 ZM307.549,80.179 C305.741,79.931 304.154,80.287 302.785,81.247 C301.416,82.207 300.740,83.436 300.759,84.937 C300.777,86.437 301.315,87.953 302.370,89.484 C303.262,90.779 304.448,91.927 305.928,92.928 C307.407,93.929 309.077,94.796 310.937,95.530 L313.301,81.649 C311.272,80.916 309.355,80.426 307.549,80.179 ZM331.473,71.185 C330.769,70.163 329.876,69.523 328.795,69.263 C327.712,69.003 326.658,69.232 325.631,69.952 C324.680,70.619 324.007,71.628 323.614,72.981 C323.221,74.333 322.897,75.767 322.645,77.283 C324.332,77.848 325.835,78.148 327.157,78.182 C328.478,78.217 329.633,77.888 330.622,77.194 C331.649,76.475 332.223,75.548 332.345,74.415 C332.466,73.282 332.176,72.205 331.473,71.185 ZM280.648,29.634 L274.552,40.873 L291.277,50.499 L287.459,57.538 L270.735,47.912 L264.606,59.213 L285.020,70.962 L281.202,78.002 L251.995,61.191 L275.673,17.533 L304.879,34.344 L301.062,41.384 L280.648,29.634 ZM247.488,32.278 C245.332,34.123 242.706,35.237 239.607,35.622 C241.022,38.961 242.470,42.089 243.949,45.005 C245.427,47.923 247.023,50.795 248.737,53.621 L240.384,58.199 C238.192,54.678 236.250,51.046 234.560,47.303 C232.868,43.560 231.188,39.482 229.518,35.064 L223.213,33.580 L219.401,51.951 L209.602,49.644 L219.774,0.633 L238.549,5.053 C240.924,5.612 243.051,6.502 244.931,7.719 C246.810,8.937 248.330,10.386 249.491,12.064 C250.652,13.744 251.447,15.627 251.876,17.715 C252.305,19.805 252.280,22.004 251.800,24.314 C251.081,27.780 249.643,30.435 247.488,32.278 ZM240.938,16.049 C239.851,14.364 238.142,13.246 235.812,12.698 L227.932,10.843 L224.782,26.024 L232.662,27.879 C234.991,28.428 236.980,28.194 238.629,27.176 C240.278,26.158 241.347,24.471 241.836,22.114 C242.325,19.757 242.026,17.736 240.938,16.049 ZM190.311,39.307 L173.351,44.830 L173.297,57.858 L163.426,61.072 L164.959,7.403 L174.830,4.189 L208.408,46.425 L198.206,49.747 L190.311,39.307 ZM173.287,16.498 L173.219,36.300 L185.276,32.373 L173.287,16.498 ZM168.926,274.367 L160.754,275.658 C160.640,274.514 160.417,273.272 160.083,271.933 C159.750,270.594 159.336,269.239 158.839,267.868 C158.344,266.498 157.783,265.158 157.159,263.848 C156.536,262.538 155.844,261.335 155.084,260.237 C153.484,257.924 151.863,256.457 150.218,255.835 C148.575,255.214 147.068,255.385 145.701,256.347 C144.789,256.988 144.180,257.781 143.873,258.726 C143.567,259.671 143.441,260.734 143.498,261.919 C143.554,263.103 143.756,264.374 144.103,265.733 C144.451,267.092 144.822,268.506 145.217,269.976 C145.743,271.879 146.252,273.839 146.742,275.854 C147.233,277.869 147.470,279.845 147.453,281.780 C147.436,283.716 147.061,285.540 146.324,287.252 C145.589,288.964 144.252,290.502 142.315,291.865 C140.491,293.148 138.603,293.908 136.649,294.146 C134.696,294.384 132.776,294.160 130.891,293.476 C129.006,292.791 127.179,291.702 125.410,290.207 C123.642,288.711 121.998,286.867 120.479,284.671 C118.851,282.318 117.502,279.756 116.431,276.983 C115.360,274.210 114.660,271.278 114.329,268.188 L122.501,266.898 C122.843,269.106 123.409,271.374 124.201,273.702 C124.993,276.030 125.985,278.057 127.178,279.782 C127.748,280.605 128.388,281.366 129.095,282.062 C129.803,282.759 130.529,283.298 131.271,283.678 C132.016,284.059 132.772,284.255 133.542,284.267 C134.313,284.279 135.040,284.043 135.724,283.562 C136.446,283.054 136.940,282.401 137.206,281.602 C137.472,280.802 137.580,279.896 137.528,278.883 C137.477,277.870 137.306,276.766 137.016,275.572 C136.726,274.376 136.372,273.111 135.954,271.772 C135.402,269.830 134.858,267.778 134.324,265.619 C133.790,263.458 133.529,261.325 133.540,259.219 C133.552,257.113 133.951,255.098 134.738,253.175 C135.525,251.252 136.964,249.554 139.053,248.084 C140.953,246.747 142.905,245.957 144.909,245.712 C146.915,245.468 148.918,245.690 150.920,246.380 C152.922,247.070 154.868,248.208 156.755,249.794 C158.643,251.381 160.387,253.330 161.987,255.642 C163.940,258.465 165.502,261.519 166.674,264.804 C167.845,268.090 168.596,271.277 168.926,274.367 ZM119.762,56.065 L132.828,86.308 L125.484,92.744 L83.046,62.789 L90.862,55.939 L119.426,77.159 L106.753,47.806 L113.782,41.646 L141.276,58.389 L124.435,26.516 L132.146,19.758 L155.280,66.631 L147.936,73.067 L119.762,56.065 ZM86.262,96.419 C86.884,97.536 87.395,98.730 87.794,100.003 C88.195,101.276 88.544,102.577 88.842,103.905 L100.859,99.478 C100.357,98.263 99.831,97.074 99.280,95.911 C98.730,94.751 98.120,93.575 97.453,92.384 L104.776,88.647 C105.516,90.027 106.185,91.359 106.784,92.647 C107.383,93.935 107.968,95.229 108.536,96.527 L116.986,93.392 L119.853,101.555 L111.346,104.819 C113.158,111.560 112.954,117.494 110.735,122.620 C109.840,124.688 108.731,126.450 107.407,127.904 C106.084,129.359 104.643,130.461 103.084,131.211 C101.526,131.961 99.881,132.349 98.149,132.371 C96.417,132.394 94.675,131.998 92.920,131.182 C91.422,130.486 90.154,129.586 89.115,128.482 C88.077,127.378 87.202,126.131 86.494,124.741 C85.784,123.351 85.190,121.845 84.709,120.224 C84.229,118.604 83.827,116.917 83.507,115.164 C80.927,116.137 78.577,116.728 76.458,116.932 C74.339,117.138 72.316,116.792 70.391,115.897 C68.893,115.201 67.622,114.249 66.578,113.038 C65.534,111.829 64.768,110.450 64.281,108.904 C63.793,107.358 63.609,105.708 63.726,103.950 C63.844,102.195 64.284,100.433 65.049,98.667 C65.814,96.901 66.790,95.389 67.977,94.129 C69.165,92.870 70.467,91.910 71.884,91.249 C73.301,90.588 74.786,90.244 76.340,90.216 C77.894,90.188 79.421,90.522 80.918,91.218 C82.116,91.775 83.151,92.502 84.022,93.398 C84.894,94.296 85.640,95.303 86.262,96.419 ZM92.407,118.292 C93.164,119.990 94.312,121.195 95.853,121.912 C97.393,122.628 98.791,122.605 100.046,121.843 C101.301,121.081 102.292,119.860 103.019,118.180 C103.634,116.758 103.969,115.155 104.022,113.368 C104.076,111.582 103.915,109.697 103.541,107.711 L90.575,112.550 C91.040,114.682 91.651,116.596 92.407,118.292 ZM80.251,102.201 C79.574,101.033 78.680,100.191 77.567,99.673 C76.411,99.136 75.324,99.096 74.303,99.553 C73.284,100.011 72.530,100.799 72.046,101.919 C71.561,103.040 71.498,104.136 71.856,105.207 C72.215,106.280 72.971,107.084 74.127,107.621 C75.197,108.118 76.407,108.203 77.757,107.873 C79.108,107.544 80.490,107.113 81.903,106.578 C81.478,104.829 80.928,103.370 80.251,102.201 ZM64.750,139.864 L106.269,140.502 L106.336,150.892 L64.818,150.254 L64.916,165.555 L56.935,165.432 L56.670,124.441 L64.652,124.563 L64.750,139.864 ZM80.160,443.806 C78.611,445.670 76.885,447.151 74.985,448.250 C73.084,449.348 71.143,450.012 69.163,450.241 C67.182,450.469 65.187,450.269 63.178,449.640 C61.168,449.011 59.265,447.921 57.469,446.367 C54.774,444.037 53.107,441.454 52.467,438.621 C51.826,435.786 52.032,432.883 53.083,429.909 C49.544,429.559 46.174,429.342 42.974,429.255 C39.773,429.168 36.560,429.208 33.333,429.376 L33.086,419.641 C37.132,419.379 41.161,419.398 45.175,419.696 C49.189,419.993 53.490,420.463 58.082,421.106 L62.194,416.157 L47.912,403.806 L54.303,396.114 L92.407,429.068 L80.160,443.806 ZM68.069,421.238 L62.929,427.424 C61.409,429.252 60.723,431.155 60.871,433.132 C61.019,435.109 62.009,436.890 63.842,438.475 C65.674,440.059 67.567,440.772 69.521,440.613 C71.475,440.454 73.212,439.460 74.731,437.631 L79.871,431.446 L68.069,421.238 ZM54.751,488.526 L47.508,484.956 L57.281,463.737 L45.719,458.037 L37.712,475.422 L30.470,471.852 L38.477,454.467 L26.851,448.737 L17.078,469.956 L9.836,466.386 L23.819,436.027 L68.733,458.167 L54.751,488.526 ZM18.070,479.710 C19.689,479.966 21.144,480.484 22.434,481.263 C23.724,482.042 24.896,483.005 25.948,484.153 C27.001,485.300 27.974,486.592 28.871,488.026 C29.767,489.461 30.605,490.981 31.384,492.589 C33.588,490.928 35.675,489.702 37.645,488.914 C39.615,488.125 41.642,487.896 43.724,488.226 C45.342,488.482 46.814,489.050 48.138,489.931 C49.462,490.810 50.566,491.931 51.448,493.291 C52.331,494.651 52.952,496.197 53.314,497.930 C53.674,499.662 53.728,501.489 53.473,503.412 C53.219,505.333 52.693,507.069 51.898,508.619 C51.101,510.167 50.115,511.459 48.940,512.494 C47.764,513.528 46.437,514.274 44.959,514.735 C43.481,515.194 41.932,515.296 40.313,515.039 C39.018,514.834 37.833,514.419 36.759,513.794 C35.684,513.168 34.699,512.402 33.804,511.495 C32.908,510.587 32.098,509.574 31.373,508.454 C30.647,507.333 29.963,506.172 29.319,504.969 L19.027,512.600 C19.834,513.637 20.657,514.641 21.497,515.612 C22.337,516.582 23.236,517.550 24.195,518.516 L18.203,524.172 C17.123,523.043 16.125,521.940 15.205,520.861 C14.285,519.782 13.378,518.693 12.485,517.594 L5.253,522.982 L0.313,515.881 L7.564,510.353 C4.015,504.334 2.611,498.535 3.350,492.957 C3.648,490.707 4.233,488.693 5.106,486.917 C5.979,485.141 7.059,483.673 8.347,482.513 C9.634,481.353 11.101,480.519 12.751,480.016 C14.400,479.511 16.173,479.409 18.070,479.710 ZM37.991,504.225 C38.952,505.167 40.034,505.734 41.237,505.924 C42.486,506.122 43.537,505.858 44.389,505.131 C45.240,504.405 45.748,503.432 45.909,502.213 C46.071,500.994 45.835,499.915 45.204,498.978 C44.572,498.040 43.632,497.473 42.383,497.275 C41.226,497.092 40.047,497.347 38.845,498.043 C37.643,498.737 36.438,499.539 35.232,500.450 C36.109,502.025 37.028,503.283 37.991,504.225 ZM12.260,500.040 C12.690,501.783 13.352,503.563 14.244,505.381 L25.333,497.086 C24.314,495.153 23.214,493.471 22.034,492.040 C20.853,490.608 19.431,489.761 17.765,489.497 C16.100,489.234 14.770,489.644 13.776,490.732 C12.782,491.819 12.164,493.277 11.921,495.105 C11.717,496.652 11.829,498.296 12.260,500.040 ZM12.240,532.571 C11.965,533.678 11.761,534.914 11.630,536.279 C11.498,537.643 11.437,539.051 11.450,540.501 C11.461,541.951 11.544,543.395 11.698,544.833 C11.850,546.271 12.104,547.632 12.456,548.920 C13.199,551.631 14.245,553.560 15.597,554.708 C16.947,555.856 18.432,556.217 20.050,555.792 C21.128,555.509 21.970,554.979 22.578,554.204 C23.184,553.428 23.659,552.479 24.001,551.354 C24.343,550.230 24.577,548.973 24.703,547.586 C24.828,546.197 24.949,544.750 25.066,543.241 C25.204,541.284 25.377,539.280 25.586,537.230 C25.795,535.180 26.231,533.254 26.894,531.454 C27.557,529.654 28.523,528.082 29.794,526.739 C31.063,525.395 32.845,524.422 35.137,523.820 C37.295,523.253 39.339,523.196 41.270,523.649 C43.201,524.102 44.945,524.974 46.504,526.264 C48.061,527.555 49.429,529.202 50.606,531.209 C51.781,533.215 52.723,535.505 53.428,538.079 C54.184,540.836 54.606,543.693 54.694,546.651 C54.781,549.608 54.465,552.586 53.745,555.584 L45.568,553.964 C45.982,551.786 46.204,549.474 46.232,547.027 C46.260,544.581 45.997,542.347 45.443,540.325 C45.179,539.360 44.826,538.430 44.389,537.535 C43.951,536.640 43.443,535.887 42.866,535.275 C42.289,534.663 41.637,534.218 40.911,533.942 C40.184,533.664 39.417,533.632 38.608,533.845 C37.753,534.069 37.066,534.508 36.548,535.162 C36.028,535.816 35.623,536.624 35.333,537.587 C35.043,538.550 34.835,539.640 34.711,540.855 C34.585,542.070 34.498,543.373 34.446,544.767 C34.320,546.770 34.150,548.872 33.934,551.072 C33.717,553.272 33.252,555.353 32.537,557.314 C31.821,559.276 30.769,561.017 29.380,562.541 C27.990,564.063 26.059,565.150 23.588,565.799 C21.340,566.390 19.225,566.453 17.243,565.989 C15.260,565.524 13.436,564.624 11.769,563.289 C10.102,561.953 8.639,560.219 7.380,558.087 C6.121,555.954 5.120,553.532 4.377,550.821 C3.470,547.512 3.011,544.123 2.999,540.653 C2.988,537.182 3.341,533.949 4.062,530.951 L12.240,532.571 ZM27.394,572.759 C29.340,570.113 31.832,567.762 34.869,565.702 C37.905,563.643 41.005,562.202 44.172,561.380 C47.336,560.558 50.427,560.378 53.444,560.838 C56.460,561.299 59.310,562.390 61.997,564.111 C64.682,565.832 67.045,568.218 69.084,571.272 C71.123,574.324 72.429,577.429 73.001,580.584 C73.572,583.739 73.502,586.811 72.790,589.800 C72.078,592.789 70.748,595.606 68.802,598.251 C66.854,600.897 64.363,603.250 61.327,605.309 C58.290,607.368 55.189,608.809 52.024,609.630 C48.858,610.452 45.751,610.630 42.703,610.162 C39.719,609.709 36.894,608.615 34.228,606.881 C31.561,605.146 29.208,602.752 27.169,599.700 C25.129,596.646 23.815,593.550 23.224,590.407 C22.633,587.265 22.693,584.200 23.405,581.211 C24.117,578.222 25.446,575.405 27.394,572.759 ZM31.976,589.526 C32.230,591.370 32.953,593.184 34.145,594.968 C35.337,596.752 36.722,598.116 38.304,599.061 C39.922,599.979 41.641,600.483 43.462,600.575 C45.281,600.665 47.215,600.362 49.263,599.665 C51.310,598.968 53.372,597.915 55.447,596.507 C57.523,595.100 59.267,593.571 60.678,591.922 C62.090,590.274 63.106,588.576 63.727,586.830 C64.348,585.084 64.531,583.289 64.277,581.445 C64.022,579.601 63.300,577.787 62.108,576.003 C60.916,574.219 59.520,572.862 57.921,571.930 C56.321,570.998 54.602,570.494 52.763,570.416 C50.923,570.339 48.981,570.649 46.933,571.346 C44.886,572.043 42.824,573.096 40.749,574.503 C38.673,575.911 36.929,577.439 35.517,579.088 C34.106,580.737 33.098,582.428 32.497,584.161 C31.895,585.894 31.721,587.682 31.976,589.526 ZM107.920,611.416 L102.957,617.660 L84.750,602.572 L76.262,613.253 L91.179,625.614 L86.216,631.859 L71.300,619.497 L58.937,635.053 L51.095,628.554 L81.871,589.828 L107.920,611.416 ZM110.826,613.332 L149.044,627.263 L146.495,634.894 L132.230,629.694 L118.970,669.388 L109.283,665.857 L122.543,626.163 L108.277,620.963 L110.826,613.332 ZM150.265,656.663 C151.276,655.522 152.437,654.452 153.746,653.450 C155.055,652.449 156.455,651.502 157.946,650.608 C156.080,648.484 154.653,646.450 153.667,644.505 C152.681,642.560 152.237,640.523 152.336,638.392 C152.412,636.736 152.809,635.209 153.529,633.810 C154.248,632.412 155.228,631.221 156.466,630.239 C157.704,629.256 159.152,628.527 160.812,628.048 C162.471,627.570 164.256,627.398 166.168,627.531 C168.079,627.664 169.837,628.083 171.443,628.788 C173.047,629.495 174.420,630.409 175.561,631.533 C176.702,632.657 177.577,633.953 178.188,635.420 C178.798,636.887 179.066,638.450 178.989,640.106 C178.928,641.432 178.649,642.659 178.153,643.788 C177.656,644.917 177.011,645.964 176.219,646.930 C175.425,647.896 174.519,648.783 173.500,649.590 C172.480,650.398 171.415,651.167 170.306,651.896 L178.899,661.827 C179.828,660.942 180.724,660.043 181.585,659.129 C182.445,658.216 183.296,657.242 184.140,656.208 L190.332,661.910 C189.342,663.077 188.369,664.160 187.411,665.162 C186.452,666.164 185.482,667.153 184.502,668.129 L190.565,675.105 L184.139,680.570 L177.936,673.584 C172.419,677.570 166.886,679.369 161.338,678.982 C159.100,678.826 157.063,678.364 155.228,677.595 C153.392,676.826 151.836,675.827 150.560,674.599 C149.283,673.370 148.308,671.938 147.636,670.299 C146.963,668.662 146.671,666.873 146.761,664.931 C146.837,663.275 147.188,661.768 147.811,660.410 C148.435,659.053 149.253,657.803 150.265,656.663 ZM168.836,636.621 C168.031,635.806 167.023,635.355 165.811,635.270 C164.598,635.186 163.566,635.495 162.716,636.195 C161.865,636.896 161.410,637.885 161.351,639.163 C161.297,640.347 161.674,641.525 162.486,642.697 C163.297,643.870 164.214,645.038 165.236,646.201 C166.685,645.210 167.820,644.197 168.639,643.161 C169.459,642.126 169.897,640.993 169.954,639.762 C170.013,638.484 169.640,637.437 168.836,636.621 ZM158.030,668.565 C159.203,669.502 160.699,670.033 162.517,670.160 C164.056,670.267 165.656,670.047 167.319,669.497 C168.981,668.948 170.654,668.162 172.339,667.140 L163.010,656.446 C161.225,657.604 159.695,658.827 158.420,660.115 C157.143,661.404 156.467,662.900 156.388,664.604 C156.310,666.308 156.856,667.629 158.030,668.565 ZM198.850,629.217 L213.224,661.988 L216.779,630.474 L225.987,628.848 L241.657,657.257 L242.828,621.451 L252.930,619.667 L249.781,671.483 L240.160,673.182 L224.026,644.202 L220.370,676.677 L210.750,678.376 L188.611,631.025 L198.850,629.217 ZM307.401,169.532 C309.727,167.446 312.337,165.964 315.234,165.087 C318.131,164.210 321.215,163.956 324.487,164.325 C327.758,164.692 331.076,165.681 334.441,167.290 C337.804,168.898 340.683,170.871 343.075,173.212 C345.468,175.551 347.280,178.147 348.515,181.000 C349.749,183.851 350.363,186.875 350.360,190.071 C350.355,193.267 349.618,196.514 348.146,199.815 C346.675,203.115 344.765,205.803 342.419,207.879 C340.072,209.954 337.450,211.431 334.554,212.308 C331.657,213.184 328.573,213.438 325.302,213.071 C322.030,212.702 318.712,211.714 315.348,210.105 C311.983,208.497 309.105,206.522 306.713,204.183 C304.320,201.842 302.501,199.231 301.256,196.348 C300.034,193.527 299.435,190.525 299.461,187.339 C299.486,184.154 300.235,180.911 301.706,177.611 C303.178,174.310 305.076,171.618 307.401,169.532 ZM309.727,192.209 C310.629,193.836 311.924,195.365 313.611,196.796 C315.298,198.226 317.291,199.491 319.591,200.591 C321.890,201.690 324.113,202.441 326.259,202.843 C328.404,203.245 330.378,203.278 332.181,202.945 C333.983,202.610 335.591,201.871 337.005,200.728 C338.419,199.583 339.557,198.048 340.417,196.119 C341.277,194.191 341.668,192.297 341.592,190.442 C341.516,188.585 341.016,186.838 340.093,185.201 C339.169,183.563 337.865,182.030 336.178,180.599 C334.491,179.169 332.497,177.904 330.198,176.804 C327.898,175.705 325.675,174.954 323.530,174.552 C321.384,174.150 319.421,174.121 317.640,174.466 C315.859,174.810 314.261,175.553 312.847,176.698 C311.433,177.841 310.296,179.378 309.436,181.306 C308.576,183.235 308.173,185.121 308.228,186.969 C308.326,188.835 308.826,190.581 309.727,192.209 ZM329.739,232.007 L309.689,258.532 L303.321,253.502 L317.334,234.962 L306.441,226.357 L294.960,241.546 L288.592,236.516 L300.073,221.327 L284.208,208.794 L290.244,200.809 L329.739,232.007 ZM286.536,271.064 L297.132,260.430 L302.801,266.265 L274.414,294.753 L268.745,288.919 L279.340,278.285 L249.848,247.934 L257.043,240.713 L286.536,271.064 ZM209.259,394.906 C207.616,393.055 206.366,391.086 205.508,389.000 C204.652,386.914 204.224,384.855 204.224,382.824 C204.225,380.792 204.645,378.813 205.484,376.887 C206.324,374.960 207.603,373.212 209.320,371.644 C211.896,369.292 214.603,368.015 217.437,367.811 C220.273,367.607 223.081,368.266 225.862,369.788 C226.602,366.277 227.194,362.915 227.639,359.705 C228.086,356.493 228.409,353.249 228.609,349.972 L238.129,351.239 C237.928,355.356 237.455,359.413 236.712,363.411 C235.970,367.409 235.027,371.670 233.882,376.196 L238.243,381.110 L251.898,368.643 L258.677,376.280 L222.248,409.541 L209.259,394.906 ZM227.175,380.095 C225.564,378.279 223.786,377.292 221.841,377.133 C219.897,376.975 218.049,377.695 216.297,379.295 C214.545,380.894 213.637,382.690 213.571,384.684 C213.507,386.677 214.279,388.582 215.891,390.398 L221.343,396.540 L232.627,386.237 L227.175,380.095 ZM288.327,408.376 L295.564,416.172 L247.039,436.421 L239.801,428.625 L262.584,380.646 L270.064,388.703 L264.254,400.190 L276.688,413.584 L288.327,408.376 ZM260.302,407.627 L251.459,425.078 L269.142,417.149 L260.302,407.627 ZM129.129,207.266 C131.696,209.151 133.913,211.676 135.779,214.839 C137.645,218.002 138.783,221.167 139.196,224.335 C139.609,227.502 139.376,230.555 138.494,233.494 C137.613,236.432 136.125,239.164 134.029,241.688 C131.934,244.212 129.309,246.411 126.157,248.287 C123.006,250.163 119.825,251.418 116.614,252.052 C113.404,252.687 110.304,252.686 107.315,252.051 C104.326,251.415 101.538,250.160 98.950,248.287 C96.364,246.414 94.137,243.896 92.271,240.732 C90.406,237.570 89.276,234.398 88.883,231.218 C88.491,228.039 88.735,224.980 89.615,222.041 C90.497,219.102 91.986,216.372 94.081,213.848 C96.177,211.324 98.801,209.123 101.952,207.248 C105.104,205.372 108.286,204.117 111.496,203.483 C114.707,202.849 117.823,202.854 120.843,203.498 C123.800,204.125 126.562,205.380 129.129,207.266 ZM113.692,213.581 C111.606,214.157 109.486,215.086 107.331,216.368 C105.177,217.650 103.347,219.072 101.843,220.633 C100.338,222.195 99.227,223.828 98.507,225.533 C97.788,227.238 97.503,229.016 97.652,230.870 C97.803,232.723 98.422,234.574 99.512,236.423 C100.603,238.271 101.922,239.707 103.467,240.729 C105.014,241.752 106.704,242.355 108.537,242.540 C110.372,242.725 112.331,242.530 114.418,241.954 C116.504,241.379 118.624,240.450 120.778,239.167 C122.933,237.885 124.762,236.463 126.267,234.902 C127.771,233.340 128.874,231.714 129.573,230.020 C130.273,228.328 130.548,226.555 130.397,224.701 C130.248,222.848 129.628,220.997 128.537,219.148 C127.447,217.300 126.140,215.858 124.612,214.824 C123.046,213.814 121.357,213.211 119.542,213.013 C117.728,212.817 115.778,213.006 113.692,213.581 ZM93.343,362.681 L111.025,413.702 L103.044,420.354 L56.971,392.993 L65.221,386.119 L76.235,393.030 L89.948,381.601 L85.362,369.333 L93.343,362.681 ZM83.357,397.697 L100.089,408.214 L93.106,389.572 L83.357,397.697 ZM88.909,168.931 L97.312,186.486 L115.156,177.963 L119.574,187.192 L75.151,208.409 L60.477,177.753 L67.640,174.332 L77.896,195.759 L90.149,189.907 L81.746,172.353 L88.909,168.931 ZM137.963,334.427 L175.563,370.499 L166.787,376.038 L141.638,350.717 L149.811,381.591 L141.918,386.572 L117.160,365.826 L129.089,399.828 L120.431,405.292 L104.507,355.540 L112.753,350.336 L138.147,371.443 L129.717,339.631 L137.963,334.427 ZM196.495,303.708 C197.169,305.605 197.484,307.436 197.440,309.202 C197.396,310.968 196.997,312.635 196.242,314.204 C195.488,315.773 194.363,317.147 192.868,318.330 C191.592,319.338 190.242,320.042 188.816,320.440 C187.392,320.838 185.915,321.019 184.388,320.981 C182.861,320.944 181.285,320.747 179.658,320.393 C178.033,320.038 176.386,319.580 174.716,319.017 C174.410,321.810 173.872,324.210 173.102,326.215 C172.334,328.221 171.128,329.872 169.488,331.169 C168.212,332.178 166.815,332.859 165.294,333.210 C163.775,333.562 162.232,333.581 160.669,333.269 C159.105,332.956 157.586,332.321 156.109,331.362 C154.634,330.403 153.298,329.152 152.102,327.606 C150.907,326.061 150.027,324.449 149.462,322.769 C148.898,321.089 148.645,319.452 148.702,317.857 C148.761,316.261 149.126,314.759 149.796,313.347 C150.468,311.936 151.441,310.725 152.717,309.717 C153.737,308.909 154.833,308.332 156.003,307.984 C157.174,307.636 158.384,307.453 159.633,307.436 C160.884,307.419 162.152,307.540 163.438,307.798 C164.725,308.056 166.014,308.374 167.304,308.751 L168.825,295.794 C167.543,295.654 166.272,295.550 165.014,295.481 C163.758,295.413 162.462,295.390 161.127,295.412 L161.150,287.011 C162.682,287.016 164.141,287.061 165.529,287.147 C166.918,287.233 168.306,287.336 169.690,287.456 L170.741,278.333 L179.128,279.719 L178.164,288.955 C184.842,290.599 189.915,293.664 193.384,298.149 C194.784,299.958 195.821,301.812 196.495,303.708 ZM161.978,315.651 C160.658,315.692 159.525,316.087 158.577,316.837 C157.592,317.615 157.071,318.574 157.013,319.714 C156.955,320.853 157.304,321.913 158.062,322.893 C158.820,323.873 159.747,324.462 160.839,324.660 C161.933,324.859 162.972,324.568 163.956,323.790 C164.867,323.069 165.482,322.022 165.799,320.647 C166.116,319.273 166.359,317.821 166.526,316.290 C164.814,315.823 163.298,315.609 161.978,315.651 ZM186.068,302.932 C185.106,301.689 183.861,300.609 182.329,299.693 C180.799,298.778 179.086,298.007 177.190,297.379 L175.603,311.391 C177.666,312.007 179.605,312.387 181.420,312.531 C183.236,312.675 184.799,312.228 186.111,311.190 C187.423,310.152 188.029,308.885 187.927,307.385 C187.825,305.887 187.205,304.402 186.068,302.932 ZM206.552,315.914 L228.362,341.911 L190.991,374.079 L169.181,348.082 L175.207,342.895 L190.451,361.066 L200.071,352.785 L187.582,337.898 L193.608,332.711 L206.097,347.598 L215.770,339.272 L200.526,321.101 L206.552,315.914 ZM257.037,295.142 C258.087,296.436 258.820,297.855 259.235,299.400 C259.650,300.944 259.739,302.512 259.502,304.102 C259.266,305.692 258.709,307.237 257.833,308.740 C256.957,310.242 255.786,311.602 254.320,312.821 C252.854,314.039 251.308,314.936 249.681,315.514 C248.055,316.091 246.455,316.352 244.884,316.296 C243.312,316.239 241.817,315.872 240.398,315.193 C238.980,314.513 237.744,313.526 236.694,312.232 C235.854,311.195 235.236,310.083 234.841,308.895 C234.445,307.705 234.211,306.476 234.138,305.206 C234.064,303.934 234.126,302.645 234.321,301.337 C234.517,300.028 234.771,298.718 235.083,297.406 L222.268,295.885 C222.189,297.189 222.144,298.480 222.134,299.759 C222.123,301.036 222.159,302.354 222.242,303.711 L213.977,303.704 C213.912,302.147 213.890,300.664 213.912,299.252 C213.934,297.840 213.972,296.430 214.027,295.022 L205.006,293.972 L205.989,285.444 L215.118,286.405 C216.433,279.614 219.218,274.452 223.473,270.916 C225.189,269.490 226.965,268.432 228.800,267.744 C230.635,267.055 232.422,266.731 234.161,266.772 C235.900,266.813 237.559,267.215 239.136,267.980 C240.713,268.744 242.117,269.884 243.348,271.401 C244.398,272.696 245.151,274.067 245.607,275.516 C246.063,276.963 246.308,278.464 246.340,280.016 C246.373,281.568 246.250,283.171 245.976,284.825 C245.700,286.477 245.324,288.153 244.846,289.851 C247.608,290.157 249.992,290.698 252.000,291.477 C254.008,292.255 255.687,293.477 257.037,295.142 ZM236.630,278.284 C235.550,276.952 234.276,276.339 232.805,276.446 C231.336,276.552 229.904,277.185 228.509,278.343 C227.329,279.324 226.324,280.592 225.493,282.151 C224.661,283.708 223.981,285.451 223.449,287.379 L237.304,288.965 C237.817,286.866 238.103,284.894 238.162,283.050 C238.221,281.203 237.711,279.616 236.630,278.284 ZM250.029,300.779 C249.279,299.854 248.220,299.231 246.854,298.912 C245.487,298.592 244.048,298.348 242.535,298.181 C242.152,299.923 242.011,301.465 242.112,302.806 C242.212,304.147 242.652,305.298 243.433,306.261 C244.243,307.260 245.209,307.788 246.333,307.845 C247.457,307.902 248.484,307.544 249.413,306.772 C250.343,305.999 250.881,305.056 251.026,303.946 C251.172,302.833 250.839,301.778 250.029,300.779 ZM310.087,431.319 L295.696,460.570 L324.329,446.140 L331.253,453.345 L305.308,497.574 L297.940,489.906 L316.441,460.096 L288.650,474.092 L282.023,467.196 L296.216,438.645 L266.291,456.969 L259.021,449.404 L303.164,424.114 L310.087,431.319 ZM307.106,648.177 L297.332,652.589 L288.409,643.035 L272.161,650.368 L273.467,663.359 L264.010,667.627 L259.930,613.971 L269.387,609.703 L307.106,648.177 ZM271.139,641.881 L282.691,636.668 L269.141,622.138 L271.139,641.881 ZM300.641,591.406 C302.763,589.975 304.944,588.966 307.183,588.377 C309.421,587.788 311.566,587.636 313.617,587.921 C315.668,588.207 317.601,588.916 319.417,590.049 C321.234,591.183 322.801,592.742 324.119,594.728 C326.098,597.707 326.971,600.669 326.740,603.613 C326.508,606.558 325.410,609.354 323.445,612.000 C326.876,613.253 330.179,614.333 333.353,615.241 C336.527,616.150 339.752,616.936 343.030,617.602 L340.284,627.215 C336.158,626.431 332.134,625.376 328.212,624.052 C324.289,622.729 320.133,621.162 315.739,619.350 L310.105,623.147 L320.589,638.936 L311.833,644.837 L283.862,602.714 L300.641,591.406 ZM312.835,611.906 C314.917,610.503 316.188,608.814 316.648,606.836 C317.108,604.859 316.665,602.857 315.320,600.831 C313.975,598.805 312.301,597.620 310.298,597.273 C308.296,596.927 306.253,597.455 304.171,598.858 L297.129,603.604 L305.793,616.652 L312.835,611.906 ZM344.256,556.228 L349.515,562.446 L330.980,578.537 L339.376,588.464 L354.562,575.281 L359.821,581.498 L344.635,594.682 L353.078,604.663 L371.613,588.572 L376.872,594.790 L350.353,617.812 L317.737,579.250 L344.256,556.228 ZM399.198,581.511 L408.741,571.798 L395.121,557.970 L400.700,552.291 L414.320,566.119 L428.218,551.972 L435.379,559.242 L400.780,594.459 L376.995,570.312 L382.574,564.633 L399.198,581.511 ZM423.780,582.569 C426.369,579.957 429.135,577.943 432.079,576.527 C435.023,575.111 438.029,574.341 441.096,574.219 C444.099,574.096 447.064,574.634 449.994,575.834 C452.923,577.034 455.667,578.945 458.227,581.565 C460.787,584.186 462.646,586.989 463.806,589.975 C464.966,592.960 465.475,595.995 465.331,599.079 C465.188,602.163 464.410,605.196 462.995,608.178 C461.581,611.159 459.579,613.955 456.991,616.568 C454.403,619.179 451.637,621.194 448.692,622.610 C445.749,624.026 442.760,624.795 439.724,624.918 C436.689,625.041 433.699,624.511 430.753,623.327 C427.807,622.143 425.055,620.242 422.495,617.621 C419.935,615.001 418.084,612.189 416.940,609.187 C415.797,606.184 415.297,603.141 415.440,600.057 C415.583,596.973 416.362,593.941 417.776,590.959 C419.191,587.977 421.192,585.180 423.780,582.569 ZM425.313,606.668 C425.904,608.438 426.946,610.088 428.442,611.620 C429.938,613.151 431.555,614.223 433.291,614.836 C435.029,615.449 436.804,615.617 438.616,615.342 C440.431,615.067 442.273,614.389 444.146,613.310 C446.020,612.230 447.841,610.798 449.611,609.012 C451.380,607.227 452.802,605.386 453.878,603.490 C454.954,601.594 455.626,599.734 455.893,597.909 C456.161,596.085 456.000,594.288 455.409,592.518 C454.819,590.748 453.776,589.098 452.280,587.566 C450.784,586.035 449.177,584.955 447.455,584.325 C445.702,583.730 443.927,583.561 442.130,583.820 C440.333,584.079 438.498,584.747 436.625,585.827 C434.751,586.906 432.930,588.339 431.160,590.124 C429.391,591.910 427.968,593.750 426.893,595.647 C425.817,597.543 425.138,599.411 424.854,601.252 C424.570,603.093 424.723,604.898 425.313,606.668 ZM457.757,640.548 C458.912,642.721 460.215,644.562 461.666,646.070 C462.359,646.790 463.111,647.436 463.918,648.007 C464.727,648.579 465.528,648.991 466.319,649.244 C467.112,649.496 467.887,649.564 468.646,649.447 C469.406,649.330 470.082,648.976 470.676,648.385 C471.304,647.762 471.684,647.032 471.816,646.197 C471.948,645.361 471.908,644.446 471.693,643.452 C471.479,642.457 471.133,641.393 470.654,640.259 C470.177,639.124 469.624,637.930 468.997,636.674 C468.141,634.844 467.274,632.904 466.400,630.855 C465.527,628.806 464.925,626.738 464.595,624.651 C464.266,622.563 464.333,620.503 464.796,618.467 C465.259,616.431 466.398,614.510 468.214,612.707 C469.865,611.066 471.657,609.957 473.587,609.380 C475.519,608.803 477.523,608.689 479.602,609.037 C481.682,609.386 483.778,610.187 485.889,611.442 C488.001,612.698 490.031,614.336 491.977,616.359 C494.353,618.827 496.381,621.590 498.064,624.646 C499.746,627.703 500.999,630.733 501.823,633.737 L494.000,636.379 C493.703,635.266 493.283,634.074 492.738,632.804 C492.194,631.534 491.568,630.262 490.858,628.988 C490.150,627.714 489.383,626.481 488.558,625.289 C487.733,624.096 486.859,623.020 485.935,622.060 C483.988,620.037 482.158,618.856 480.441,618.515 C478.725,618.175 477.272,618.595 476.083,619.776 C475.291,620.563 474.821,621.450 474.671,622.436 C474.523,623.423 474.571,624.497 474.819,625.660 C475.066,626.823 475.470,628.048 476.030,629.335 C476.591,630.623 477.185,631.960 477.811,633.350 C478.636,635.146 479.452,637.001 480.260,638.914 C481.068,640.827 481.620,642.744 481.916,644.662 C482.213,646.581 482.138,648.449 481.691,650.267 C481.246,652.085 480.180,653.831 478.496,655.504 C476.911,657.079 475.178,658.147 473.296,658.708 C471.415,659.270 469.492,659.369 467.528,659.007 C465.565,658.644 463.594,657.871 461.613,656.685 C459.634,655.500 457.720,653.949 455.871,652.028 C453.892,649.971 452.152,647.660 450.651,645.094 C449.150,642.528 447.988,639.742 447.163,636.739 L454.987,634.096 C455.679,636.225 456.603,638.375 457.757,640.548 Z"/>
</g>
</svg>