<?xml version="1.0" standalone="no"?>
<!DOCTYPE svg PUBLIC "-//W3C//DTD SVG 20010904//EN"
 "http://www.w3.org/TR/2001/REC-SVG-20010904/DTD/svg10.dtd">
<svg version="1.0" xmlns="http://www.w3.org/2000/svg"
 width="843.000000pt" height="843.000000pt" viewBox="0 0 843.000000 843.000000"
 preserveAspectRatio="xMidYMid meet">
<metadata>
Created by potrace 1.14, written by Peter Selinger 2001-2017
</metadata>
<g transform="translate(0.000000,843.000000) scale(0.100000,-0.100000)"
fill="#000000" stroke="none">
<path d="M757 8420 c-342 -58 -617 -303 -724 -645 l-28 -90 0 -3470 0 -3470
28 -88 c98 -312 312 -526 624 -624 l88 -28 3470 0 3470 0 88 28 c351 110 598
391 647 735 8 55 10 1058 8 3497 l-3 3420 -28 88 c-98 312 -312 526 -624 624
l-88 28 -3440 1 c-1892 1 -3462 -2 -3488 -6z m3465 -1661 c35 -14 68 -67 68
-109 0 -43 -28 -87 -62 -99 -31 -11 -30 -15 9 -90 13 -24 23 -47 23 -51 0 -7
-45 -30 -59 -30 -5 0 -26 38 -47 85 -31 69 -43 85 -60 85 -19 0 -23 -8 -33
-61 -6 -34 -12 -63 -14 -65 -2 -2 -18 -1 -35 2 -22 5 -32 12 -32 25 0 16 57
317 65 345 3 11 118 -13 177 -37z m-492 3 c8 -9 31 -37 49 -62 19 -25 69 -87
110 -139 71 -88 74 -94 56 -107 -30 -22 -56 -16 -89 21 l-31 36 -55 -18 -55
-18 -5 -50 c-5 -46 -7 -50 -38 -59 -18 -5 -35 -7 -37 -4 -3 3 -2 91 2 197 l6
192 31 14 c41 18 39 18 56 -3z m830 -140 c133 -73 123 -65 109 -95 -14 -30
-25 -33 -48 -13 -21 18 -120 70 -124 65 -40 -67 -41 -72 -21 -86 10 -8 38 -24
62 -35 46 -22 50 -32 25 -60 -16 -17 -18 -17 -69 12 -30 16 -58 30 -63 30 -9
0 -41 -55 -41 -69 0 -3 32 -24 70 -46 38 -22 70 -45 70 -51 0 -5 -6 -19 -14
-29 -13 -19 -16 -18 -72 16 -33 19 -76 44 -97 55 -57 29 -62 38 -39 76 10 18
45 83 77 143 60 114 73 135 84 135 3 -1 44 -22 91 -48z m-1075 -127 c44 -91
81 -170 82 -177 1 -7 -10 -23 -26 -35 l-28 -22 -54 35 c-81 54 -139 87 -139
79 0 -4 6 -21 14 -38 8 -18 28 -63 45 -100 l31 -68 -27 -25 c-14 -13 -29 -24
-32 -24 -4 0 -50 30 -102 68 -52 37 -112 79 -134 95 -85 59 -82 54 -55 82 13
14 27 25 32 25 7 0 107 -68 118 -80 12 -15 81 -62 84 -59 2 2 -8 29 -23 59
-15 30 -35 74 -44 98 l-17 43 26 24 c15 14 29 23 33 21 3 -2 48 -29 99 -60
l93 -56 -59 114 -59 114 26 26 c14 14 28 26 31 25 3 0 41 -74 85 -164z m1405
-151 c29 -18 60 -71 60 -105 0 -11 -14 -34 -30 -51 -28 -27 -35 -30 -74 -24
-42 7 -43 6 -50 -25 -10 -51 -8 -59 19 -59 22 0 25 -4 25 -36 0 -35 -1 -36
-29 -31 -27 6 -30 3 -36 -24 -6 -27 -10 -30 -38 -27 -30 3 -32 5 -30 38 3 32
-1 37 -36 54 -50 23 -83 68 -88 121 -4 34 -1 47 20 71 25 29 53 34 132 22 15
-2 21 3 23 24 4 33 45 68 79 68 14 0 37 -7 53 -16z m-1676 -219 c7 -26 25 -31
56 -15 15 8 20 5 29 -22 12 -34 7 -44 -24 -50 -17 -3 -20 -10 -17 -51 7 -95
-63 -179 -133 -161 -31 8 -74 58 -82 94 -5 26 -8 27 -43 23 -102 -14 -149 104
-68 172 49 41 105 27 134 -34 9 -20 18 -37 19 -39 1 -1 19 5 39 13 34 14 37
19 31 45 -5 21 -2 31 12 39 28 16 40 13 47 -14z m1595 -211 c2 -2 -2 -23 -8
-47 -16 -57 -11 -117 12 -131 27 -17 48 4 71 71 29 84 50 111 90 118 95 18
151 -89 115 -217 -11 -40 -24 -46 -53 -25 -15 11 -16 18 -5 59 15 56 2 98 -31
98 -20 0 -23 -4 -66 -108 -23 -55 -56 -82 -103 -82 -41 1 -59 12 -86 54 -23
35 -26 145 -6 195 12 28 17 32 40 26 14 -4 28 -8 30 -11z m-1909 -84 l0 -60
155 0 155 0 0 -40 0 -40 -155 0 -155 0 0 -55 c0 -54 0 -55 -30 -55 l-30 0 0
155 0 155 30 0 30 0 0 -60z m1975 -253 c98 -39 140 -94 139 -184 0 -51 -5 -67
-28 -97 -40 -53 -77 -69 -152 -64 -111 7 -194 85 -194 182 1 126 119 208 235
163z m-1762 -87 c14 -33 30 -60 34 -60 5 0 35 14 67 30 32 17 60 29 61 28 1
-2 10 -18 19 -36 l17 -33 -163 -78 c-90 -44 -166 -77 -169 -75 -4 2 -30 52
-59 111 -48 100 -50 108 -34 120 30 22 38 15 77 -62 36 -74 36 -74 66 -64 51
18 55 31 26 92 -14 31 -25 60 -25 66 0 9 18 17 45 20 6 0 23 -26 38 -59z
m1540 -234 c16 -13 68 -55 117 -93 49 -37 89 -72 90 -77 0 -13 -139 -196 -149
-196 -4 0 -16 9 -26 20 -18 20 -17 22 28 80 26 33 47 66 47 74 0 17 -59 56
-74 50 -6 -3 -27 -26 -47 -53 -35 -48 -35 -48 -57 -31 -28 23 -27 28 2 59 13
15 31 38 40 53 l17 26 -55 42 c-31 24 -56 46 -56 50 0 4 9 19 21 34 l21 26 26
-19 c15 -11 40 -31 55 -45z m-1306 33 c44 -16 71 -48 94 -108 18 -49 19 -60 8
-100 -29 -101 -145 -169 -244 -141 -104 29 -159 160 -107 257 16 30 90 91 116
96 43 9 105 7 133 -4z m1089 -379 l108 -110 41 39 c38 37 41 38 58 22 9 -10
17 -22 17 -27 0 -5 -46 -55 -102 -111 l-102 -103 -23 22 -23 22 36 37 c44 45
45 43 -80 169 l-95 95 26 27 c15 16 27 28 28 28 1 0 51 -50 111 -110z m-896
68 c18 -6 41 -19 51 -29 55 -55 100 -179 66 -179 -9 0 -21 -2 -29 -5 -9 -4
-18 9 -27 41 -16 53 -55 104 -81 104 -33 0 -39 -54 -15 -135 19 -60 12 -98
-22 -125 -40 -31 -95 -27 -139 12 -36 32 -74 102 -74 138 0 17 19 30 44 30 7
0 20 -23 30 -51 10 -28 29 -57 43 -66 22 -15 26 -15 40 0 14 14 14 21 -1 81
-9 36 -16 77 -16 92 0 36 29 82 60 93 34 13 32 13 70 -1z m667 -163 c27 -19
44 -74 36 -118 -4 -30 -2 -33 31 -45 40 -15 76 -55 76 -84 0 -56 -75 -116
-128 -103 -46 11 -62 34 -62 85 0 50 -10 60 -67 60 -19 0 -23 -6 -23 -30 0
-27 -3 -30 -30 -30 -28 0 -30 3 -30 34 0 32 -3 35 -32 38 -29 3 -33 6 -33 33
0 27 3 30 33 30 30 0 35 4 47 38 15 45 31 65 70 89 37 22 83 23 112 3z m-457
-114 c0 -33 4 -40 24 -45 37 -9 80 -50 101 -95 15 -35 16 -45 5 -71 -19 -47
-51 -63 -109 -58 l-49 5 -17 -43 c-13 -33 -24 -45 -49 -54 -40 -13 -79 -1
-107 33 -61 73 -9 172 80 152 24 -5 31 -3 31 8 0 8 3 29 6 46 6 28 4 31 -20
31 -23 0 -26 4 -26 35 0 32 2 35 30 35 27 0 30 3 30 30 0 28 3 30 35 30 34 0
35 -1 35 -39z m243 -283 c98 -119 117 -143 115 -150 -6 -14 -262 -228 -274
-228 -7 0 -14 4 -16 9 -3 8 -59 75 -120 145 l-28 31 21 18 c12 9 25 17 29 17
5 0 30 -27 57 -60 26 -33 53 -60 59 -60 5 0 22 12 37 28 l26 27 -27 31 c-71
79 -68 72 -43 96 l23 21 48 -54 47 -53 27 17 c44 29 42 43 -13 106 -47 54 -51
62 -39 80 19 30 32 26 71 -21z m2272 -28 c4 -6 -5 -31 -19 -57 -15 -25 -25
-47 -24 -48 2 -1 58 -37 126 -81 67 -43 122 -82 122 -87 0 -4 -7 -22 -16 -38
l-15 -30 -32 21 c-18 12 -52 33 -75 48 -24 15 -67 44 -95 65 -28 20 -54 37
-58 37 -4 0 -19 -20 -33 -45 -15 -25 -30 -45 -34 -45 -11 1 -42 26 -42 34 0 6
64 112 122 204 10 15 21 33 24 39 6 13 37 2 49 -17z m-2612 -259 c37 -36 67
-67 67 -70 0 -3 -14 -14 -32 -24 l-32 -18 -92 92 -92 92 29 -104 c16 -57 29
-109 29 -114 0 -6 -14 -19 -30 -29 l-30 -17 -68 57 c-110 95 -106 92 -100 69
4 -11 23 -67 43 -123 20 -57 35 -105 33 -107 -2 -1 -17 -10 -35 -19 l-32 -16
-46 148 c-25 81 -52 163 -59 184 -13 35 -13 37 15 57 33 25 36 24 104 -34 26
-22 59 -50 74 -62 29 -26 42 -29 36 -10 -4 12 -30 115 -45 174 -7 29 -5 34 23
52 l32 20 70 -67 c38 -37 100 -96 138 -131z m529 29 c-2 -25 -8 -66 -14 -93
-10 -41 -10 -50 5 -64 16 -16 20 -15 61 27 41 39 47 42 63 29 44 -35 45 -42 3
-79 -21 -19 -71 -64 -111 -100 -39 -36 -83 -75 -97 -88 l-27 -24 -48 54 c-102
114 -112 177 -34 238 22 18 37 21 71 18 l44 -5 7 69 6 69 37 -3 37 -3 -3 -45z
m-987 -272 l50 -147 -24 -25 c-14 -14 -28 -26 -32 -26 -5 0 -52 26 -106 58
-54 32 -131 78 -172 101 l-73 43 28 24 c36 29 41 29 79 4 17 -11 35 -20 40
-20 6 1 30 18 54 39 l44 39 -16 46 -16 45 31 26 31 27 16 -44 c9 -24 39 -109
66 -190z m2871 206 c21 -15 23 -19 11 -33 -8 -9 -28 -42 -46 -73 l-32 -57 37
-25 c21 -14 40 -23 44 -21 4 3 22 29 40 59 l34 55 27 -16 27 -16 -38 -62 -38
-62 64 -40 63 -40 -20 -32 c-12 -20 -24 -29 -32 -25 -12 7 -117 75 -238 154
l-67 43 22 34 c11 19 30 49 41 66 11 18 31 49 44 70 12 20 25 37 27 37 3 0 16
-7 30 -16z m-1669 -136 c28 -26 28 -33 3 -80 l-20 -37 47 -50 46 -49 40 18
c46 21 55 19 80 -16 l18 -25 -48 -20 c-26 -11 -64 -27 -83 -35 -19 -9 -44 -19
-55 -24 -47 -21 -178 -70 -179 -68 -1 2 -12 15 -25 30 -21 24 -23 31 -13 50 6
13 30 64 53 113 85 184 100 215 106 215 4 0 17 -10 30 -22z m-1526 -128 c9 -8
30 -26 46 -40 121 -101 172 -147 177 -158 10 -22 -90 -138 -134 -156 -36 -14
-44 -14 -78 -1 -45 18 -72 59 -72 109 l0 36 -70 0 -70 0 0 41 0 41 94 -7 c85
-7 94 -6 100 11 5 14 -4 30 -39 62 -45 43 -47 50 -17 84 16 19 19 17 63 -22z
m3144 -64 c25 -15 59 -46 75 -68 57 -78 34 -200 -46 -253 -45 -30 -128 -26
-187 8 -70 41 -102 95 -102 172 0 52 4 67 28 98 61 80 143 95 232 43z m-1322
-130 l27 -25 -50 -102 c-27 -57 -48 -104 -46 -106 1 -2 47 20 101 47 l99 50
23 -22 c16 -15 22 -30 19 -43 -4 -16 -168 -300 -181 -314 -5 -4 -55 50 -55 59
0 4 9 19 20 33 11 14 20 28 20 32 0 3 18 33 40 67 22 34 38 64 35 66 -4 4
-117 -51 -162 -78 -20 -13 -24 -12 -47 13 -15 16 -26 30 -26 33 0 2 17 37 37
76 71 137 71 133 -3 87 -36 -22 -82 -51 -103 -65 -42 -27 -62 -25 -85 11 -15
23 -15 24 142 114 86 49 160 90 163 91 3 0 18 -11 32 -24z m-1928 -142 c83
-42 153 -79 158 -83 4 -4 -16 -57 -45 -119 l-51 -111 -28 15 -28 14 35 74 c19
41 34 77 34 80 0 7 -56 36 -69 36 -6 0 -24 -27 -41 -60 -29 -57 -31 -59 -55
-48 -31 14 -31 15 0 82 14 30 25 57 25 59 0 3 -17 13 -38 24 l-39 19 -38 -78
c-21 -43 -41 -78 -44 -78 -12 1 -41 27 -41 37 0 5 6 23 14 39 8 16 29 62 47
102 18 39 38 72 44 72 6 0 78 -34 160 -76z m2907 -70 c-31 -30 -43 -50 -40
-66 5 -34 33 -33 85 1 26 17 65 37 86 43 35 11 44 10 76 -9 25 -15 39 -31 45
-55 16 -62 0 -105 -59 -164 -30 -30 -60 -54 -68 -54 -7 0 -20 12 -27 26 -13
23 -12 27 5 37 40 22 85 75 85 101 0 50 -49 51 -115 2 -45 -34 -91 -47 -123
-35 -49 19 -62 38 -62 92 0 60 26 107 83 148 l40 29 16 -26 c16 -26 15 -27
-27 -70z m-672 -129 c0 -31 3 -35 38 -45 21 -5 56 -25 78 -44 35 -31 39 -38
39 -82 0 -69 -26 -94 -100 -94 -54 0 -55 -1 -55 -29 0 -15 -9 -40 -21 -55 -16
-21 -29 -26 -62 -26 -58 1 -98 36 -104 94 -5 38 -2 46 23 70 19 17 40 26 61
26 32 0 33 1 33 45 0 44 -1 46 -27 43 -25 -3 -28 1 -31 30 -3 30 -1 32 27 32
29 0 31 3 31 35 0 33 2 35 35 35 33 0 35 -2 35 -35z m-2404 -63 c12 -9 29 -29
39 -44 16 -26 18 -27 45 -13 44 23 78 18 111 -14 34 -35 39 -91 12 -131 -23
-35 -33 -40 -73 -40 -40 0 -48 5 -76 41 l-20 27 -34 -28 -35 -28 20 -22 c19
-21 19 -22 -5 -40 -24 -18 -25 -18 -47 2 -21 19 -24 20 -46 5 -23 -15 -26 -14
-47 8 l-22 24 26 23 c27 23 27 24 12 60 -28 65 -19 115 27 166 25 27 82 29
113 4z m2891 -42 c29 -10 63 -62 63 -95 0 -11 12 -15 44 -15 43 0 44 1 42 33
-1 28 3 32 25 35 22 3 27 -2 33 -29 6 -30 8 -31 41 -25 35 7 35 6 35 -28 0
-32 -3 -35 -32 -38 -31 -3 -33 -6 -40 -51 -22 -158 -195 -172 -215 -17 -5 38
-7 40 -40 40 -78 0 -115 106 -55 162 15 14 36 28 47 31 11 3 20 5 21 6 1 0 14
-4 31 -9z m-232 -340 c-58 -58 -105 -109 -105 -114 0 -5 16 -24 35 -43 35 -34
37 -56 7 -68 -11 -4 -46 25 -121 99 l-106 106 23 22 23 23 37 -41 37 -41 109
109 109 109 29 -28 28 -27 -105 -106z m-2478 48 c39 -36 67 -161 44 -196 -4
-8 -19 -12 -32 -10 -22 3 -25 9 -30 65 -6 63 -20 93 -45 93 -20 0 -26 -17 -40
-107 -13 -91 -23 -109 -71 -130 -28 -11 -38 -11 -65 0 -41 18 -60 40 -81 95
-18 46 -23 147 -7 157 5 3 20 3 33 0 22 -6 25 -13 29 -76 6 -75 18 -99 53 -99
17 0 24 9 33 39 7 21 12 54 12 73 0 84 43 133 109 123 19 -2 45 -14 58 -27z
m2662 -233 c23 -25 45 -45 49 -45 4 0 28 20 52 45 24 25 48 45 52 45 12 0 48
-39 48 -52 0 -6 -57 -68 -126 -137 l-125 -125 -84 84 c-46 47 -84 89 -85 94 0
5 8 18 17 28 16 18 19 17 75 -39 57 -57 59 -58 85 -43 52 30 52 45 -2 99 -48
49 -48 51 -30 71 10 11 21 20 25 20 4 0 26 -20 49 -45z m-444 -5 c19 -21 18
-22 -50 -84 l-68 -62 32 -35 c27 -29 33 -32 44 -19 6 9 30 30 52 47 l39 33 22
-21 22 -21 -55 -52 -55 -52 31 -34 30 -35 28 25 c15 14 45 41 67 62 l40 36 18
-24 c11 -13 17 -28 13 -34 -3 -5 -47 -44 -97 -86 l-91 -78 -44 50 c-24 27 -78
91 -120 143 l-77 93 47 43 c83 75 142 125 148 125 3 0 14 -9 24 -20z m-2125
-30 c96 -49 125 -180 59 -264 -41 -53 -98 -80 -165 -81 -51 0 -66 4 -97 28
-78 59 -99 159 -50 232 64 95 166 130 253 85z m2896 -99 c109 -50 135 -193 51
-288 -62 -71 -150 -91 -222 -50 -139 79 -123 269 29 338 52 24 90 23 142 0z
m-963 -112 c33 -28 37 -35 37 -79 0 -27 -5 -52 -11 -56 -16 -9 5 -21 74 -40
51 -15 58 -20 53 -38 -3 -12 -6 -27 -6 -33 0 -19 -32 -16 -114 13 -60 20 -79
23 -96 14 -23 -12 -22 -14 27 -82 l33 -46 -29 -21 c-16 -12 -33 -21 -38 -21
-4 0 -31 35 -59 78 -125 191 -144 221 -144 229 0 8 77 62 135 95 48 27 95 23
138 -13z m-1741 -11 c13 -13 41 -36 63 -53 21 -16 52 -42 69 -57 30 -26 31
-26 12 -47 -11 -12 -22 -21 -25 -21 -3 0 -24 16 -46 36 -22 20 -51 43 -64 52
-23 15 -24 15 -52 -19 -16 -19 -28 -36 -28 -39 0 -3 22 -22 49 -43 54 -42 58
-51 34 -78 -16 -18 -19 -16 -69 27 l-53 45 -41 -48 c-22 -26 -41 -51 -41 -55
0 -16 -27 -7 -49 16 l-22 23 37 49 c21 27 58 74 83 104 25 31 59 72 75 93 16
20 33 37 36 37 4 0 18 -10 32 -22z m1628 -406 c0 -4 -14 -13 -31 -21 -29 -13
-32 -12 -63 18 -17 17 -36 31 -41 31 -5 0 -34 -10 -63 -22 l-54 -23 5 -48 c4
-45 2 -49 -26 -63 -45 -24 -43 -36 -63 283 l-7 103 34 15 34 14 138 -140 c75
-77 137 -143 137 -147z m1366 247 c19 -18 46 -56 59 -84 24 -47 24 -51 8 -62
-25 -19 -53 -16 -53 5 -1 28 -54 96 -84 107 -51 18 -57 -29 -16 -119 43 -95
13 -176 -65 -176 -44 0 -69 13 -107 54 -30 32 -73 105 -65 112 2 2 17 7 34 10
26 5 32 2 38 -16 9 -29 64 -90 81 -90 30 0 34 35 8 91 -14 30 -28 75 -31 101
-5 43 -3 50 26 79 29 29 36 31 82 27 40 -4 57 -12 85 -39z m-2746 -13 c36 -13
78 -28 93 -35 16 -6 34 -11 42 -11 8 0 16 -4 20 -9 3 -5 18 -12 34 -16 23 -5
27 -10 23 -31 -6 -34 -14 -36 -68 -18 -39 13 -48 13 -55 2 -5 -7 -27 -71 -50
-141 l-42 -129 -31 6 c-17 4 -34 10 -38 14 -8 8 11 72 65 225 l25 68 -35 14
c-20 8 -38 15 -42 15 -23 1 -32 18 -20 43 7 15 13 27 13 27 1 0 30 -11 66 -24z
m980 -113 c-1 -129 -18 -285 -32 -295 -7 -4 -24 -8 -38 -8 -21 1 -33 15 -80
100 -63 115 -64 115 -76 -42 -6 -77 -9 -87 -28 -92 -50 -13 -55 -8 -107 102
-79 165 -110 234 -107 237 2 2 19 6 39 10 36 7 36 6 59 -47 12 -29 33 -76 46
-104 13 -28 24 -57 24 -65 0 -12 2 -12 9 0 5 8 13 58 16 110 4 53 13 99 19
103 6 4 23 8 38 8 23 0 33 -12 81 -95 l54 -96 7 47 c3 26 6 82 6 125 0 81 2
84 53 88 15 1 17 -9 17 -86z m-607 26 c74 -38 87 -92 36 -145 l-31 -32 28 -36
c28 -35 29 -35 49 -16 19 18 23 18 43 4 27 -19 27 -25 3 -51 -20 -21 -20 -21
0 -39 25 -22 24 -39 -3 -58 -21 -15 -24 -14 -48 8 l-25 24 -35 -18 c-80 -44
-183 -6 -191 70 -4 39 4 56 41 91 33 31 37 39 25 49 -18 15 -29 71 -20 100 8
24 60 60 88 60 10 0 28 -5 40 -11z"/>
<path d="M4106 6703 c-3 -10 -8 -35 -11 -55 -7 -36 -6 -37 28 -43 49 -9 70 -4
83 23 17 35 6 62 -32 78 -44 19 -62 18 -68 -3z"/>
<path d="M3710 6653 c0 -11 -3 -42 -7 -68 -6 -46 -6 -47 18 -40 75 24 73 19
33 72 -20 27 -38 50 -40 52 -2 2 -4 -5 -4 -16z"/>
<path d="M4826 6274 c-12 -31 -6 -44 18 -44 30 0 40 13 31 40 -8 24 -40 27
-49 4z"/>
<path d="M4660 6195 c-17 -20 -4 -51 31 -76 17 -12 32 -20 33 -18 2 2 6 25 8
51 4 35 2 48 -9 52 -25 10 -50 7 -63 -9z"/>
<path d="M2962 6053 c-14 -27 -3 -43 29 -43 21 0 29 5 29 18 0 38 -42 56 -58
25z"/>
<path d="M3128 5982 c-35 -16 -37 -19 -25 -41 6 -13 20 -29 29 -35 25 -15 58
18 58 61 0 37 -8 39 -62 15z"/>
<path d="M4759 5502 c-47 -24 -63 -69 -41 -113 32 -63 124 -103 182 -79 30 12
50 47 50 86 0 37 -57 92 -112 109 -41 12 -50 12 -79 -3z"/>
<path d="M3244 5215 c-53 -24 -94 -72 -94 -112 0 -42 45 -93 83 -93 41 0 92
27 127 66 40 46 36 85 -12 127 -35 30 -57 32 -104 12z"/>
<path d="M4108 4733 c-38 -45 -28 -63 37 -63 25 0 35 5 40 20 15 48 -44 81
-77 43z"/>
<path d="M4220 4566 c0 -34 24 -51 44 -31 19 20 20 27 4 43 -21 21 -48 14 -48
-12z"/>
<path d="M3729 4560 c-1 -22 -2 -46 -3 -52 -1 -17 51 -23 70 -7 23 19 16 46
-19 73 -19 15 -37 26 -40 26 -4 0 -8 -18 -8 -40z"/>
<path d="M3603 4463 c-19 -7 -16 -50 4 -57 20 -8 45 20 41 44 -3 16 -25 22
-45 13z"/>
<path d="M4027 3992 c-24 -27 -21 -63 9 -95 l26 -29 39 38 c41 40 41 44 -5 87
-25 22 -49 22 -69 -1z"/>
<path d="M3071 3882 l-34 -28 62 -33 63 -33 -16 31 c-9 16 -16 36 -16 44 0 7
-6 21 -13 30 -11 16 -15 15 -46 -11z"/>
<path d="M4347 3773 c-17 -28 -57 -107 -55 -109 2 -1 29 10 60 24 l57 27 -29
33 c-15 19 -30 30 -33 25z"/>
<path d="M2908 3661 c-9 -9 -22 -29 -29 -45 -12 -26 -11 -30 14 -52 37 -31 47
-30 85 9 l32 33 -27 25 c-51 46 -57 48 -75 30z"/>
<path d="M5847 3690 c-32 -38 -34 -71 -7 -116 22 -35 91 -74 132 -74 34 0 74
33 81 67 12 64 -59 139 -143 150 -32 5 -40 1 -63 -27z"/>
<path d="M5000 3140 c0 -49 0 -50 31 -50 61 0 69 63 12 89 -39 18 -43 14 -43
-39z"/>
<path d="M4885 3034 c-15 -11 -17 -18 -9 -32 6 -9 20 -17 30 -17 14 0 20 8 22
33 4 36 -10 41 -43 16z"/>
<path d="M2519 3159 c-11 -21 -5 -89 8 -89 4 0 24 12 45 26 32 23 36 29 26 43
-34 45 -61 52 -79 20z"/>
<path d="M2700 3105 c-10 -12 -10 -18 0 -30 20 -25 55 -15 55 15 0 30 -35 40
-55 15z"/>
<path d="M5432 3118 c-25 -25 -7 -48 39 -48 23 0 24 9 3 38 -17 25 -25 27 -42
10z"/>
<path d="M5587 3013 c-43 -5 -52 -18 -38 -56 14 -35 53 -36 75 -2 16 25 22 66
9 63 -5 -1 -25 -3 -46 -5z"/>
<path d="M2722 2540 c-23 -16 -46 -38 -51 -49 -18 -33 -12 -76 13 -106 22 -25
29 -27 73 -23 109 10 175 117 113 183 -34 36 -94 35 -148 -5z"/>
<path d="M5643 2451 c-40 -29 -73 -83 -73 -119 0 -11 12 -34 26 -51 37 -44 89
-43 140 1 72 63 78 143 15 181 -40 24 -62 21 -108 -12z"/>
<path d="M4690 2372 c-9 -4 -26 -14 -39 -24 l-23 -16 27 -46 c15 -25 31 -46
35 -46 5 0 25 15 44 34 33 31 35 35 25 65 -6 17 -15 31 -19 31 -5 0 -14 2 -22
4 -7 3 -20 2 -28 -2z"/>
<path d="M4421 2155 c0 -16 3 -46 7 -66 l7 -36 37 17 36 16 -44 49 -43 50 0
-30z"/>
<path d="M3620 2073 c0 -11 6 -28 14 -39 17 -23 34 -11 38 26 3 21 -2 26 -24
28 -22 3 -28 -1 -28 -15z"/>
<path d="M3603 1916 c-28 -29 -29 -52 -3 -66 21 -11 90 -4 90 9 0 4 -15 24
-32 44 l-33 36 -22 -23z"/>
</g>
</svg>
