<?xml version="1.0" standalone="no"?>
<!DOCTYPE svg PUBLIC "-//W3C//DTD SVG 20010904//EN"
 "http://www.w3.org/TR/2001/REC-SVG-20010904/DTD/svg10.dtd">
<svg version="1.0" xmlns="http://www.w3.org/2000/svg"
 width="760.000000pt" height="760.000000pt" viewBox="0 0 760.000000 760.000000"
 preserveAspectRatio="xMidYMid meet">
<metadata>
Created by potrace 1.14, written by Peter Selinger 2001-2017
</metadata>
<g transform="translate(0.000000,760.000000) scale(0.100000,-0.100000)"
fill="#000000" stroke="none">
<path d="M3049 7058 c-1 -2 -3 -12 -5 -23 -1 -11 -5 -29 -7 -40 -13 -51 -77
-370 -77 -381 0 -6 12 -15 28 -18 15 -4 35 -9 44 -12 13 -4 19 4 25 33 4 21 8
40 8 43 1 3 5 22 9 43 5 20 12 39 16 42 13 8 60 -13 60 -27 0 -7 20 -54 45
-105 l45 -93 40 21 c22 12 40 23 40 26 0 3 -15 33 -33 66 -51 94 -51 95 -14
111 63 26 92 86 76 158 -17 75 -57 104 -179 132 -110 25 -120 27 -121 24z
m177 -123 c28 -18 38 -59 22 -92 -17 -35 -44 -42 -98 -29 -42 10 -45 13 -42
41 2 17 8 47 13 68 10 37 11 38 47 32 20 -3 46 -12 58 -20z"/>
<path d="M2586 7014 c-22 -8 -41 -16 -44 -18 -2 -2 -6 -78 -8 -168 -3 -89 -6
-198 -8 -241 -3 -90 2 -96 58 -73 36 15 36 15 36 75 l0 60 73 22 c39 11 75 22
78 23 4 0 23 -20 43 -46 l36 -47 39 14 c22 7 42 11 45 8 3 -4 6 0 6 7 0 7 -45
69 -100 137 -55 68 -100 125 -100 128 0 4 -31 41 -80 95 l-35 38 -39 -14z m88
-178 c25 -33 46 -62 46 -66 0 -4 -17 -12 -37 -19 -21 -7 -44 -15 -50 -17 -10
-4 -13 16 -13 82 0 48 2 85 4 83 2 -2 25 -31 50 -63z"/>
<path d="M3564 6888 c-5 -7 -18 -32 -31 -56 -13 -24 -36 -67 -52 -95 -16 -29
-51 -95 -79 -148 l-51 -96 37 -20 c20 -11 81 -46 134 -77 53 -31 99 -56 102
-56 3 0 13 14 22 31 18 37 26 29 -93 96 l-82 46 26 49 c14 26 30 48 35 48 5 0
41 -18 80 -41 38 -22 71 -39 73 -37 1 1 10 18 19 36 16 31 16 33 -1 40 -37 15
-133 74 -133 82 0 9 18 43 39 76 14 21 15 21 105 -32 l91 -53 17 22 c10 12 17
29 15 37 -2 12 -239 158 -259 159 -4 1 -10 -5 -14 -11z"/>
<path d="M2193 6850 l-33 -31 61 -116 c34 -65 68 -128 76 -140 9 -13 14 -25
12 -28 -2 -2 -58 29 -124 70 l-119 73 -33 -25 c-18 -14 -33 -30 -33 -35 0 -5
23 -63 51 -129 29 -66 50 -121 48 -123 -2 -2 -58 36 -123 85 -66 49 -123 89
-127 89 -10 0 -69 -50 -69 -59 0 -4 45 -38 101 -76 55 -39 135 -95 177 -126
116 -84 113 -83 151 -47 18 17 30 35 28 42 -3 6 -28 64 -57 129 -28 65 -49
121 -47 124 3 3 30 -11 60 -31 30 -20 59 -36 66 -36 6 0 11 -4 11 -10 0 -5 5
-10 11 -10 6 0 29 -13 53 -29 l42 -29 38 31 37 32 -86 175 c-108 220 -129 260
-135 260 -3 0 -20 -14 -37 -30z"/>
<path d="M4002 6490 c-31 -19 -62 -66 -62 -94 0 -12 -7 -14 -32 -8 -18 4 -54
7 -80 7 -38 0 -53 -5 -74 -27 -75 -74 -27 -196 102 -261 30 -15 31 -19 24 -56
-7 -39 -7 -39 31 -49 43 -11 49 -8 49 24 0 42 8 50 50 46 l40 -4 0 41 c0 38
-2 41 -27 42 -16 1 -32 1 -36 0 -4 -1 -5 16 -1 36 4 21 8 47 9 58 2 18 8 20
61 17 49 -2 63 1 87 20 99 82 -32 274 -141 208z m79 -80 c42 -23 5 -82 -45
-73 -21 4 -23 8 -16 34 15 52 25 58 61 39z m-173 -99 c12 -1 12 -18 -2 -106
-5 -28 -35 -21 -68 16 -45 48 -29 99 29 93 15 -1 34 -2 41 -3z"/>
<path d="M1945 6224 c-39 -20 -39 -18 -20 -53 15 -29 15 -32 -2 -38 -10 -3
-33 -12 -52 -19 -18 -8 -35 -14 -36 -14 -2 0 -8 15 -15 34 -25 77 -85 110
-147 79 -84 -41 -105 -165 -36 -217 26 -19 94 -25 126 -11 11 5 17 3 17 -6 0
-8 11 -38 25 -66 75 -162 259 -68 243 124 l-5 51 38 15 c38 15 38 15 26 52
-11 38 -24 41 -78 20 -12 -4 -20 3 -29 25 -16 40 -21 42 -55 24z m-205 -106
c27 -29 25 -46 -7 -54 -45 -12 -80 28 -53 61 17 21 36 19 60 -7z m215 -157
c-23 -45 -67 -44 -89 3 -9 19 -16 39 -16 44 0 6 26 19 58 30 l57 19 3 -33 c2
-18 -4 -47 -13 -63z"/>
<path d="M3933 5948 c-20 -41 -30 -82 -32 -135 -3 -76 15 -132 56 -170 29 -28
42 -33 83 -33 70 0 107 38 145 149 22 61 35 86 53 94 48 22 70 -45 46 -137 -7
-27 -11 -53 -9 -57 8 -12 64 -28 69 -20 18 28 32 96 31 146 -3 114 -58 180
-145 172 -57 -6 -85 -38 -123 -141 -16 -42 -35 -83 -43 -91 -23 -23 -51 -18
-70 11 -15 22 -16 35 -7 92 6 37 14 77 18 88 5 18 1 25 -26 38 -17 9 -33 16
-34 16 -1 0 -7 -10 -12 -22z"/>
<path d="M1528 5892 c-2 -8 -2 -95 0 -192 l3 -177 38 -1 39 -2 0 58 c0 31 1
64 1 72 1 13 28 15 193 12 l193 -3 -2 43 c0 24 -2 46 -2 49 -1 6 -16 6 -251
10 l-135 3 0 70 0 70 -37 1 c-26 2 -38 -2 -40 -13z"/>
<path d="M3955 5528 c-68 -14 -134 -80 -152 -151 -11 -42 -5 -114 11 -149 40
-84 145 -149 245 -151 112 -2 197 80 208 200 8 101 -43 180 -145 226 -69 31
-111 37 -167 25z m132 -116 c93 -48 123 -126 76 -199 -19 -28 -74 -46 -116
-38 -54 12 -126 57 -148 92 -36 58 -13 139 46 164 29 12 98 3 142 -19z"/>
<path d="M1798 5478 c-36 -12 -35 -27 7 -113 l34 -70 -42 -22 c-23 -12 -49
-22 -58 -23 -10 0 -31 32 -59 90 -23 50 -45 92 -49 94 -3 2 -20 -3 -37 -12
l-31 -17 68 -140 c37 -77 71 -140 76 -140 4 1 42 17 83 37 41 20 132 63 203
96 l127 61 -22 45 -21 45 -61 -30 c-34 -16 -69 -34 -79 -40 -25 -14 -30 -8
-70 76 -20 41 -37 75 -39 74 -2 0 -15 -5 -30 -11z"/>
<path d="M3680 5158 c-28 -38 -24 -47 58 -109 l60 -47 -53 -73 -53 -73 31 -22
31 -21 20 26 c11 14 35 45 53 68 l34 43 47 -36 c26 -20 46 -41 44 -47 -3 -9
-58 -83 -72 -97 -3 -3 -15 -19 -27 -36 l-22 -32 23 -21 c12 -11 27 -21 33 -21
6 0 52 54 102 121 l91 121 -47 36 c-27 20 -53 41 -59 47 -6 5 -26 21 -44 35
-37 27 -92 72 -100 80 -11 11 -117 90 -122 90 -2 0 -15 -14 -28 -32z"/>
<path d="M2034 5165 c-200 -45 -272 -260 -133 -396 65 -64 157 -76 249 -33
163 75 201 245 83 371 -54 58 -118 76 -199 58z m122 -103 c50 -27 72 -99 47
-151 -27 -56 -122 -110 -185 -106 -76 5 -126 96 -91 167 26 53 125 109 183
104 14 -1 34 -7 46 -14z"/>
<path d="M3362 4786 l-31 -34 115 -119 c63 -65 125 -128 137 -141 l21 -22 -49
-50 -49 -50 24 -25 c13 -14 27 -25 31 -25 4 0 65 59 137 130 l129 131 -19 24
c-11 14 -25 25 -31 25 -6 0 -32 -20 -57 -45 l-46 -46 -130 134 c-71 73 -134
136 -140 140 -6 3 -25 -9 -42 -27z"/>
<path d="M2335 4768 c-86 -24 -108 -98 -69 -232 25 -88 16 -125 -30 -117 -31
5 -61 47 -81 116 -7 22 -15 39 -19 38 -3 -2 -19 -3 -36 -3 -26 0 -30 -3 -30
-29 0 -42 59 -149 101 -183 45 -37 96 -45 140 -24 71 33 80 82 43 221 -11 42
-12 89 -3 107 26 48 102 -7 129 -95 15 -47 17 -53 19 -66 1 -9 39 -7 69 4 15
5 9 37 -21 110 -47 114 -133 176 -212 153z"/>
<path d="M3130 4564 c-19 -8 -45 -25 -58 -37 -23 -21 -62 -95 -62 -116 0 -14
-21 -19 -57 -11 -30 7 -31 6 -36 -29 -2 -20 -2 -39 2 -43 6 -7 40 -15 67 -17
6 -1 11 -18 10 -38 -1 -38 -1 -38 39 -38 37 0 39 2 40 29 0 35 12 40 69 32
l43 -7 0 -49 c-1 -60 16 -95 59 -115 88 -41 198 55 173 150 -11 38 -50 72 -92
80 l-32 6 0 74 c0 70 -2 77 -31 105 -36 37 -84 45 -134 24z m88 -124 c2 -12 1
-33 -2 -46 -6 -21 -11 -23 -39 -18 -17 3 -44 6 -59 6 -32 1 -34 8 -13 48 21
41 64 63 90 46 11 -7 21 -23 23 -36z m114 -183 c14 -21 8 -46 -12 -57 -15 -8
-24 -6 -40 10 -20 20 -26 50 -13 64 10 10 56 -3 65 -17z"/>
<path d="M2595 4461 c-3 -6 -7 -25 -7 -41 -1 -20 -6 -30 -17 -31 -9 -1 -27 -2
-41 -2 -22 -2 -25 -7 -26 -39 -1 -33 2 -38 22 -38 46 0 52 -8 43 -57 -5 -25
-6 -50 -3 -55 4 -6 -13 -7 -44 -3 -80 10 -131 -28 -132 -98 0 -99 94 -170 175
-132 27 14 39 28 52 66 l18 49 60 -6 c70 -6 99 6 131 53 48 72 -10 184 -120
229 -43 18 -43 18 -38 61 3 32 1 43 -9 43 -8 0 -24 3 -35 6 -12 3 -25 1 -29
-5z m140 -224 c19 -27 19 -52 -1 -71 -13 -14 -32 -15 -87 -7 -7 1 -1 90 8 118
5 16 60 -11 80 -40z m-185 -139 c0 -48 -40 -74 -68 -46 -29 29 -6 67 39 66 22
-1 29 -6 29 -20z"/>
<path d="M2898 4094 l-27 -27 42 -51 c23 -28 47 -55 52 -61 48 -47 49 -50 8
-89 -21 -20 -41 -36 -46 -36 -10 0 -63 58 -84 92 -23 38 -39 41 -68 14 l-24
-23 55 -67 56 -68 -38 -39 c-21 -21 -41 -39 -44 -38 -3 0 -34 36 -70 79 -36
43 -70 79 -76 79 -5 1 -20 -8 -32 -20 -22 -20 -22 -20 -3 -47 11 -15 32 -41
48 -57 15 -17 44 -51 63 -75 37 -48 69 -80 80 -80 3 0 19 12 36 28 29 27 143
127 198 173 16 13 47 40 70 60 l40 37 -34 39 c-19 21 -55 63 -80 93 -25 30
-56 67 -70 82 l-25 29 -27 -27z"/>
<path d="M5691 3900 l-100 -159 26 -21 c14 -11 29 -20 33 -20 5 0 23 24 40 53
18 28 34 53 35 55 5 5 55 -21 55 -30 0 -4 5 -8 10 -8 6 0 63 -35 128 -78 64
-43 122 -81 128 -85 7 -4 23 11 39 34 14 22 25 42 23 43 -2 1 -30 19 -63 41
-33 22 -67 45 -76 50 -95 59 -179 119 -179 128 0 7 14 32 30 56 17 24 30 49
30 55 0 6 -13 19 -30 28 l-29 17 -100 -159z"/>
<path d="M2243 3919 c-18 -12 -33 -23 -33 -24 0 -2 7 -30 16 -62 8 -32 24 -90
34 -130 10 -39 21 -76 25 -82 15 -25 -12 -6 -119 83 l-113 94 -41 -26 c-40
-27 -40 -27 -26 -62 21 -57 124 -385 124 -398 0 -22 21 -23 60 -1 l39 22 -14
34 c-8 18 -14 35 -15 38 0 3 -3 10 -5 17 -37 104 -73 213 -70 216 1 2 9 -3 16
-10 8 -7 46 -39 84 -71 39 -33 81 -68 94 -79 19 -17 27 -18 45 -8 60 32 59 24
20 169 -19 73 -34 135 -32 137 3 2 53 -46 112 -106 59 -61 111 -110 114 -110
4 0 24 11 44 25 l37 25 -70 68 c-39 37 -117 111 -172 165 -55 53 -105 97 -111
97 -6 0 -26 -10 -43 -21z"/>
<path d="M3129 3773 c0 -15 -2 -36 -4 -45 -2 -9 -6 -36 -9 -59 -7 -51 -7 -52
-37 -41 -78 29 -172 -42 -172 -130 0 -49 17 -86 63 -138 17 -19 46 -52 63 -72
18 -21 37 -38 42 -38 6 0 33 22 61 48 89 82 228 210 252 230 12 11 22 24 22
29 0 10 -52 63 -62 63 -4 0 -33 -24 -65 -54 -57 -55 -58 -55 -76 -35 -18 20
-18 52 0 129 2 8 6 35 9 60 3 25 7 51 9 58 3 6 -1 12 -8 13 -7 0 -29 2 -49 5
-36 4 -38 3 -39 -23z m5 -272 l37 -38 -52 -47 -53 -48 -33 37 c-34 38 -37 45
-33 80 3 25 19 45 44 55 30 11 50 2 90 -39z"/>
<path d="M1830 3649 l-34 -29 21 -58 21 -58 -62 -51 -62 -51 -55 31 -55 31
-32 -29 c-18 -15 -32 -32 -32 -36 0 -5 33 -27 73 -51 39 -23 81 -48 92 -55 11
-7 29 -17 40 -22 11 -5 61 -35 110 -65 50 -31 96 -56 103 -56 7 0 28 12 46 27
l34 26 -79 231 c-43 126 -82 233 -86 237 -5 4 -24 -6 -43 -22z m71 -307 c15
-40 25 -72 22 -72 -3 0 -37 19 -75 42 l-68 43 37 32 c21 18 42 31 47 30 5 -2
21 -35 37 -75z"/>
<path d="M5474 3552 c-43 -69 -80 -129 -82 -133 -2 -5 79 -62 180 -128 101
-66 189 -125 195 -131 9 -8 19 0 38 30 14 22 25 41 25 43 0 2 -34 26 -75 52
-41 26 -75 49 -75 52 0 3 20 38 44 78 l44 73 -29 21 c-26 19 -31 20 -44 7 -8
-8 -15 -17 -15 -20 0 -12 -64 -106 -73 -106 -14 0 -97 53 -97 63 0 4 22 42 48
85 27 42 51 82 54 87 4 6 -8 20 -26 32 l-32 21 -80 -126z"/>
<path d="M3418 3453 c-15 -32 -48 -103 -73 -158 -26 -55 -60 -126 -76 -159
-16 -32 -29 -61 -29 -65 0 -3 14 -22 31 -41 34 -38 40 -39 114 -6 28 12 121
51 207 87 87 35 158 68 158 74 0 5 -14 23 -31 41 l-30 31 -51 -24 -51 -25 -59
60 -59 60 26 57 26 57 -33 34 c-18 18 -35 34 -38 34 -3 0 -17 -26 -32 -57z
m38 -304 c-30 -15 -65 -29 -78 -32 -24 -6 -24 -6 11 67 l36 73 43 -41 43 -41
-55 -26z"/>
<path d="M1476 3336 c-26 -35 -33 -56 -18 -56 5 0 34 -22 64 -48 54 -48 55
-49 37 -71 -16 -19 -24 -21 -76 -16 -57 6 -119 8 -158 6 -17 -1 -20 -8 -19
-41 1 -22 3 -43 6 -45 2 -2 43 -5 90 -7 l87 -3 -1 -45 c-1 -25 4 -55 10 -67
19 -34 74 -72 114 -78 59 -10 98 15 178 109 l72 86 -23 23 c-25 24 -292 254
-320 275 -14 10 -20 7 -43 -22z m190 -228 c79 -69 78 -67 58 -91 -57 -67 -87
-76 -130 -37 -32 31 -30 64 7 111 17 21 33 39 35 39 2 0 16 -10 30 -22z"/>
<path d="M5355 3268 c-144 -30 -209 -226 -114 -346 101 -129 266 -150 364 -47
83 89 79 219 -10 308 -71 71 -158 102 -240 85z m112 -113 c56 -28 100 -78 109
-123 8 -41 -19 -98 -56 -117 -102 -53 -278 90 -235 192 17 41 61 73 99 73 18
0 55 -11 83 -25z"/>
<path d="M3785 3086 c-22 -13 -112 -65 -200 -116 -88 -50 -162 -94 -164 -96
-3 -2 10 -20 29 -39 l33 -34 41 23 c23 13 81 49 131 80 49 31 91 53 92 49 1
-5 -24 -62 -56 -128 l-60 -120 31 -32 c21 -21 36 -29 47 -24 60 25 217 107
223 116 5 6 8 6 8 -2 0 -6 -36 -69 -80 -138 -77 -125 -79 -128 -62 -150 9 -13
25 -28 35 -35 20 -12 31 -3 59 50 7 14 55 96 106 182 91 156 92 158 76 183
-34 52 -44 51 -179 -18 -69 -35 -125 -61 -125 -58 0 3 27 60 60 128 33 67 60
127 60 132 0 8 -57 72 -63 71 -1 -1 -20 -11 -42 -24z"/>
<path d="M1156 2858 c-37 -77 -65 -142 -64 -143 2 -1 18 -10 36 -19 l33 -17
39 84 c22 46 40 89 40 96 0 6 5 11 12 11 20 0 98 -41 98 -52 0 -5 -15 -42 -34
-82 l-34 -73 35 -17 c20 -9 36 -16 38 -14 4 5 62 133 66 145 3 9 19 6 57 -12
28 -13 52 -27 52 -31 0 -6 -60 -137 -80 -176 -12 -23 45 -54 66 -37 8 6 14 15
14 19 0 4 25 61 55 125 30 64 53 120 51 124 -3 4 -45 27 -93 51 -48 24 -140
69 -204 101 l-116 58 -67 -141z"/>
<path d="M5074 2906 c-75 -52 -115 -112 -121 -184 -5 -57 -4 -61 28 -96 59
-62 104 -58 228 23 74 47 94 50 117 17 14 -23 14 -28 -2 -62 -10 -20 -41 -55
-70 -77 l-52 -41 15 -31 c9 -16 17 -31 18 -33 12 -13 145 93 145 116 0 5 6 15
14 21 12 10 26 55 31 102 3 30 -29 83 -65 107 -51 35 -101 25 -195 -37 -81
-53 -104 -57 -121 -22 -19 36 25 101 93 139 14 8 14 12 -1 40 -22 42 -26 43
-62 18z"/>
<path d="M4169 2673 c-1 -10 -1 -28 -1 -40 1 -13 -4 -24 -11 -25 -7 0 -16 -2
-22 -3 -5 -2 -18 -3 -28 -4 -15 -1 -18 -8 -15 -38 4 -35 7 -38 38 -43 35 -5
35 -5 36 -60 l0 -55 -52 -1 c-46 0 -57 -4 -78 -29 -56 -65 -24 -162 64 -198
82 -34 145 16 149 116 1 13 8 18 24 17 73 -6 108 1 138 28 56 50 49 131 -16
197 -25 24 -85 60 -85 51 0 -3 -13 0 -30 5 -29 11 -38 34 -31 87 1 8 -12 12
-39 12 -31 0 -40 -4 -41 -17z m167 -196 c36 -37 19 -86 -31 -91 -50 -6 -55 1
-55 70 l0 64 38 -15 c20 -9 42 -21 48 -28z m-166 -168 c0 -49 -39 -76 -68 -47
-29 29 -6 68 40 68 22 0 28 -5 28 -21z"/>
<path d="M1085 2568 c-55 -43 -72 -145 -36 -223 l17 -40 -32 -30 -33 -30 24
-30 24 -29 32 23 31 23 27 -26 c33 -31 35 -32 61 -6 25 25 25 26 0 58 -20 24
-20 26 -3 36 10 5 29 20 43 33 l24 23 42 -45 c35 -39 46 -45 80 -45 92 0 143
100 100 192 -28 58 -102 76 -162 39 l-31 -19 -18 32 c-51 85 -129 112 -190 64z
m116 -97 c16 -16 29 -34 29 -39 0 -6 -16 -20 -35 -32 -19 -12 -35 -26 -35 -31
0 -11 -27 -12 -34 -1 -3 5 -8 27 -12 49 -5 34 -2 45 15 62 28 28 37 27 72 -8z
m220 -60 c0 -3 2 -14 4 -24 4 -20 -31 -48 -51 -40 -7 2 -20 16 -29 29 -15 24
-15 25 17 38 30 13 57 12 59 -3z"/>
<path d="M4810 2522 c-68 -11 -126 -95 -108 -159 11 -42 33 -67 68 -79 23 -7
35 -9 75 -13 11 -1 15 -13 15 -42 0 -136 133 -192 220 -93 35 40 48 70 55 122
6 43 11 50 50 54 28 3 30 6 30 43 l0 40 -42 -2 c-24 -2 -43 1 -44 5 -6 60 -14
70 -51 63 -31 -7 -33 -10 -30 -44 2 -25 -1 -37 -10 -38 -7 0 -34 -3 -60 -5
-45 -4 -48 -3 -44 18 4 25 -16 82 -36 101 -21 20 -61 33 -88 29z m29 -92 c4 0
13 -11 19 -25 9 -19 8 -27 -3 -39 -21 -21 -75 0 -75 29 0 26 20 47 38 40 8 -3
17 -5 21 -5z m217 -156 c-18 -70 -47 -101 -85 -89 -25 8 -45 49 -38 77 5 20
13 24 49 27 23 1 44 3 45 5 2 1 10 3 19 3 11 0 14 -7 10 -23z"/>
<path d="M4493 2151 l-132 -136 -50 49 -51 50 -25 -24 c-14 -13 -24 -27 -23
-31 4 -10 243 -255 258 -264 11 -7 50 30 50 48 0 6 -21 30 -46 55 l-47 44 84
85 c46 47 107 109 136 137 l52 52 -22 25 c-49 54 -42 57 -184 -90z"/>
<path d="M1310 2173 c-43 -16 -65 -61 -74 -153 -10 -99 -16 -119 -37 -131 -54
-29 -88 24 -86 134 2 62 -1 77 -13 78 -8 0 -25 2 -37 5 -30 5 -35 -6 -34 -83
0 -83 24 -154 65 -198 36 -38 71 -50 120 -41 68 13 100 72 111 210 5 63 17 86
45 86 36 0 55 -38 57 -113 2 -75 7 -83 58 -82 18 0 20 8 23 63 4 82 -19 151
-65 197 -29 29 -42 35 -76 34 -23 0 -49 -3 -57 -6z"/>
<path d="M4710 1885 l-24 -25 50 -52 c27 -29 56 -58 64 -64 13 -11 10 -18 -25
-53 -21 -23 -44 -41 -50 -41 -7 0 -41 32 -77 70 -36 39 -72 70 -79 70 -8 0
-22 -12 -32 -25 l-17 -24 110 -113 111 -113 142 146 c203 208 186 184 152 219
-16 17 -32 30 -36 30 -5 0 -35 -28 -69 -62 l-60 -62 -63 62 c-34 34 -65 62
-68 62 -3 0 -16 -11 -29 -25z"/>
<path d="M4087 1768 c-64 -55 -117 -104 -117 -109 0 -6 66 -88 130 -161 8 -9
49 -57 90 -107 41 -49 77 -90 80 -90 3 0 24 16 46 37 58 52 155 137 182 159
l22 18 -25 29 -25 29 -32 -26 c-18 -14 -55 -46 -83 -71 -27 -25 -53 -46 -57
-46 -3 0 -23 19 -43 43 l-36 42 58 52 c32 29 61 53 66 53 4 0 7 8 7 18 0 20
-46 69 -51 55 -2 -4 -32 -32 -67 -62 l-64 -54 -38 44 -38 44 50 45 c28 25 67
59 86 76 l35 31 -19 26 c-10 15 -24 27 -30 27 -6 0 -63 -46 -127 -102z"/>
<path d="M1416 1828 c-71 -15 -148 -75 -183 -141 -40 -79 -16 -193 56 -259 95
-88 226 -75 333 34 65 66 80 144 45 230 -44 107 -142 160 -251 136z m143 -119
c17 -17 31 -36 32 -42 0 -7 3 -25 5 -41 10 -60 -83 -149 -167 -160 -86 -10
-151 74 -120 156 22 58 114 117 183 118 28 0 44 -7 67 -31z"/>
<path d="M5056 1695 c-79 -28 -157 -114 -174 -191 -4 -22 -4 -63 1 -93 8 -47
16 -62 61 -105 56 -57 99 -74 170 -71 92 5 201 103 223 201 37 162 -127 314
-281 259z m148 -100 c70 -46 65 -137 -13 -213 -43 -42 -94 -62 -136 -55 -32 7
-85 57 -86 84 -1 10 -2 25 -3 32 -6 40 59 127 115 155 45 22 85 21 123 -3z"/>
<path d="M3810 1550 c-30 -17 -57 -34 -60 -38 -3 -5 -23 -19 -44 -33 -22 -13
-44 -27 -49 -30 -6 -4 -1 -20 12 -37 11 -17 21 -35 21 -40 0 -6 4 -12 8 -14 4
-1 52 -70 106 -153 54 -82 100 -152 102 -154 4 -5 84 47 84 54 0 3 -21 37 -47
75 -44 68 -46 71 -27 85 25 19 24 19 123 -14 133 -46 136 -46 150 -1 16 53 14
57 -16 63 -43 8 -73 15 -110 28 -29 9 -34 15 -28 33 18 62 17 95 -5 134 -43
76 -128 92 -220 42z m112 -72 c47 -38 41 -88 -15 -129 -22 -16 -44 -29 -48
-29 -9 0 -79 100 -79 112 0 12 84 58 106 58 11 0 27 -6 36 -12z"/>
<path d="M1626 1390 c-75 -94 -139 -177 -142 -184 -3 -7 11 -25 31 -40 l35
-27 27 32 c15 18 40 50 56 71 31 44 27 44 111 -25 l59 -49 23 29 c13 15 23 30
23 33 0 3 -29 28 -64 55 -35 28 -64 54 -64 59 -1 5 15 29 35 52 l35 44 86 -70
85 -70 19 24 c10 13 19 29 19 34 0 9 -195 177 -226 195 -7 4 -65 -60 -148
-163z"/>
<path d="M5405 1372 c-36 -18 -65 -49 -66 -71 0 -9 -2 -27 -5 -39 -2 -13 12
-64 32 -112 41 -102 42 -134 3 -138 -32 -4 -80 40 -105 97 -13 30 -22 40 -34
35 -8 -4 -25 -9 -37 -11 -28 -6 -27 -1 -4 -56 23 -53 82 -122 123 -143 67 -35
138 -20 171 35 25 43 21 82 -18 177 -41 98 -43 117 -14 138 19 13 25 13 50 0
32 -16 84 -87 95 -128 6 -27 24 -30 67 -11 23 10 22 23 -9 81 -64 122 -173
186 -249 146z"/>
<path d="M3475 1362 c-22 -9 -42 -17 -44 -19 -6 -4 0 -109 24 -408 2 -16 3
-45 4 -62 1 -37 9 -40 58 -17 l34 17 -4 62 -3 62 55 25 c96 44 94 44 137 -6
28 -34 41 -42 53 -35 9 5 28 13 44 19 15 5 27 13 27 17 0 5 -78 87 -173 184
l-172 176 -40 -15z m114 -185 l43 -50 -47 -24 c-26 -14 -49 -22 -51 -20 -3 2
-7 31 -9 63 -2 32 -6 69 -9 81 -4 19 -2 21 12 11 9 -6 37 -34 61 -61z"/>
<path d="M2021 1309 c-6 -18 -11 -33 -11 -34 0 -2 26 -13 58 -25 31 -13 60
-26 64 -29 4 -4 -19 -87 -52 -186 -33 -99 -60 -180 -60 -181 0 -7 84 -34 89
-29 3 4 33 86 67 183 33 97 64 176 70 175 5 -1 34 -11 64 -22 l55 -20 12 27
c7 15 12 32 12 37 1 8 -330 135 -351 135 -3 0 -11 -14 -17 -31z"/>
<path d="M3284 1270 c-19 -8 -21 -17 -23 -122 -2 -98 -5 -155 -10 -193 -1 -5
-32 46 -70 115 l-69 125 -38 -3 c-22 -2 -42 -6 -46 -10 -7 -7 -14 -55 -24
-158 -3 -33 -7 -69 -9 -80 -2 -10 -4 -26 -5 -34 0 -8 -23 37 -51 100 -90 205
-77 188 -128 178 -24 -4 -46 -9 -47 -11 -2 -2 24 -61 57 -132 33 -72 72 -155
85 -185 45 -99 61 -130 66 -125 3 3 20 7 39 9 19 2 37 4 40 5 6 1 11 38 26
171 3 30 7 62 9 70 1 8 3 24 3 35 1 25 11 13 53 -65 95 -177 96 -180 131 -173
52 10 62 19 63 60 1 21 5 90 9 153 4 63 8 143 10 178 2 35 5 66 8 69 3 3 3 11
0 19 -6 15 -46 18 -79 4z"/>
<path d="M2485 1201 c-61 -26 -80 -102 -41 -166 l24 -39 -43 -38 c-67 -59 -75
-127 -21 -187 48 -53 176 -56 237 -4 13 11 20 9 44 -17 16 -17 32 -30 36 -30
5 0 20 11 34 25 l27 24 -26 26 c-31 31 -31 33 -2 69 l24 29 -29 25 -30 24 -24
-26 -24 -26 -35 42 c-41 48 -42 52 -18 70 69 50 68 145 -2 187 -33 19 -98 25
-131 12z m85 -81 c21 -21 18 -46 -9 -67 -34 -25 -69 45 -39 75 17 17 25 15 48
-8z m20 -257 c24 -19 -9 -45 -58 -47 -74 -1 -94 45 -42 96 l31 29 27 -33 c15
-18 34 -38 42 -45z"/>
</g>
</svg>
