<?xml version="1.0" standalone="no"?>
<!DOCTYPE svg PUBLIC "-//W3C//DTD SVG 20010904//EN"
 "http://www.w3.org/TR/2001/REC-SVG-20010904/DTD/svg10.dtd">
<svg version="1.0" xmlns="http://www.w3.org/2000/svg"
 width="1000.000000pt" height="1000.000000pt" viewBox="0 0 1000.000000 1000.000000"
 preserveAspectRatio="xMidYMid meet">
<metadata>
Created by potrace 1.14, written by Peter Selinger 2001-2017
</metadata>
<g transform="translate(0.000000,1000.000000) scale(0.100000,-0.100000)"
fill="#000000" stroke="none">
<path d="M4630 9579 c-193 -15 -543 -69 -645 -99 -16 -5 -79 -21 -140 -36
-275 -67 -580 -181 -870 -324 -196 -97 -437 -233 -443 -251 -2 -5 -8 -9 -13
-9 -23 0 -288 -192 -464 -336 -162 -132 -375 -344 -550 -545 -109 -126 -306
-388 -337 -449 -7 -14 -16 -27 -20 -30 -17 -13 -150 -242 -229 -395 -233 -450
-394 -951 -463 -1435 -38 -265 -41 -320 -41 -670 0 -380 10 -500 61 -792 198
-1130 808 -2137 1728 -2851 122 -95 375 -264 509 -341 542 -310 1137 -505
1777 -582 299 -36 878 -27 1140 16 30 5 69 12 85 14 339 53 665 142 1003 275
182 72 611 288 620 312 2 5 9 9 16 9 15 0 230 139 234 151 2 5 8 9 14 9 20 0
276 196 423 323 115 100 387 377 484 493 101 121 231 291 231 303 0 4 9 16 20
26 11 10 20 24 20 31 0 7 4 14 8 16 12 4 127 182 197 303 59 102 196 374 229
455 10 25 26 63 36 85 32 72 98 259 143 406 93 299 158 643 187 989 15 176 12
560 -6 758 -41 463 -167 975 -334 1359 -124 284 -246 516 -377 717 -35 54 -71
105 -79 113 -8 8 -14 18 -14 22 0 8 -135 192 -200 271 -34 42 -49 59 -141 165
-87 98 -346 353 -434 425 -49 41 -101 85 -115 98 -14 12 -43 35 -65 50 -22 15
-42 29 -45 32 -17 18 -90 70 -98 70 -5 0 -16 8 -23 17 -16 19 -190 134 -331
218 -51 31 -183 101 -293 155 -247 122 -396 182 -625 254 -47 15 -105 33 -130
41 -207 66 -575 134 -867 160 -166 14 -613 17 -773 4z m246 -2469 c5 0 20 -14
33 -30 13 -17 31 -30 41 -30 10 0 23 -7 30 -15 7 -8 16 -12 21 -9 5 3 9 1 9
-4 0 -16 58 -36 73 -25 6 5 31 11 55 12 23 1 56 6 71 11 19 5 33 4 40 -3 6 -6
11 -7 11 -3 0 5 7 3 15 -4 8 -7 15 -9 15 -5 0 4 8 1 17 -6 9 -8 14 -9 10 -3
-4 7 2 14 13 17 11 3 23 0 28 -7 10 -17 52 -27 52 -13 0 8 4 7 12 -1 9 -9 16
-8 31 6 14 12 21 13 24 5 2 -7 11 -9 20 -6 8 3 18 1 22 -6 4 -7 19 -13 32 -15
13 -1 32 -6 42 -10 9 -5 24 -5 33 -2 8 3 12 2 9 -4 -3 -6 -1 -10 4 -10 6 0 11
6 11 13 0 9 2 9 9 -1 4 -8 12 -14 17 -14 30 -1 51 -18 49 -40 -1 -12 2 -29 8
-35 6 -9 5 -18 -3 -28 -10 -12 -8 -14 9 -10 12 2 19 0 17 -4 -3 -4 4 -18 15
-30 15 -16 19 -29 14 -51 -4 -17 -12 -33 -18 -37 -16 -10 -37 -49 -37 -67 0
-7 -9 -16 -19 -19 -15 -3 -19 -13 -19 -36 1 -17 4 -31 8 -31 4 0 6 -27 6 -60
-1 -33 2 -60 6 -60 5 0 7 -6 5 -12 -1 -7 5 -12 13 -11 16 3 40 -39 40 -69 0
-10 5 -18 12 -18 6 0 1 -9 -11 -19 -26 -23 -42 -81 -30 -104 6 -10 5 -18 -2
-23 -7 -4 -1 -12 17 -20 16 -7 23 -13 15 -13 -11 -1 -10 -6 3 -26 9 -14 13
-25 10 -25 -4 0 1 -9 11 -20 16 -18 16 -20 2 -20 -13 0 -15 -6 -11 -30 4 -19
1 -36 -7 -47 -12 -14 -12 -16 0 -9 9 6 12 5 10 -3 -3 -7 -9 -13 -14 -14 -6 -1
-18 -8 -28 -17 -10 -8 -23 -15 -29 -15 -6 0 -13 -5 -15 -11 -2 -7 4 -11 14
-10 27 2 28 -78 1 -115 -17 -22 -18 -30 -8 -49 8 -14 8 -25 2 -29 -12 -8 -7
-42 8 -51 6 -4 10 -11 9 -16 -1 -5 -1 -22 0 -38 1 -20 5 -27 15 -23 8 3 17 -1
20 -8 3 -8 12 -12 20 -9 8 3 17 1 20 -5 4 -6 29 -13 56 -17 28 -4 50 -11 50
-16 0 -5 10 -6 21 -3 15 5 19 4 15 -4 -10 -15 7 -14 23 2 11 10 13 10 7 0 -5
-9 0 -13 13 -13 13 0 21 -7 21 -16 0 -11 6 -15 20 -11 11 3 22 1 26 -4 3 -5
40 -6 82 -3 115 9 213 10 248 3 17 -4 39 -2 48 3 9 5 16 5 16 1 0 -9 11 -12
75 -16 35 -2 42 2 62 31 15 23 20 40 15 55 -11 32 -8 89 6 115 12 21 9 27 -12
23 -5 -1 -4 5 3 13 8 10 10 33 6 73 -10 96 -5 228 13 310 5 23 5 40 1 37 -9
-5 -11 5 -13 68 -1 21 2 38 5 38 3 0 5 25 5 55 -1 30 -5 55 -10 55 -5 0 -3 7
4 15 7 8 10 25 6 40 -4 16 -2 25 6 25 9 0 9 3 0 12 -9 9 -9 15 1 27 9 11 9 13
0 8 -16 -10 -27 11 -14 27 6 7 8 16 4 20 -11 10 -15 59 -5 52 4 -3 7 8 4 23
-2 16 2 39 8 51 10 19 10 24 -4 32 -13 7 -14 13 -6 23 7 9 9 23 4 37 -13 38
-13 46 2 52 8 3 14 13 14 21 0 9 5 13 10 10 6 -4 9 3 7 17 -4 23 13 48 32 48
6 0 10 6 9 13 -2 7 5 11 16 9 10 -2 15 1 12 6 -7 11 43 55 64 57 8 0 22 5 29
10 10 5 12 4 7 -3 -5 -8 1 -12 18 -12 13 0 26 -5 28 -12 3 -7 27 -12 61 -12
31 -1 57 -3 57 -6 0 -3 19 -6 41 -6 23 -1 45 -8 50 -15 5 -8 9 -10 9 -6 0 4 9
3 20 -3 11 -6 26 -8 33 -3 15 9 47 12 47 3 0 -6 27 -9 125 -11 22 -1 45 -5 51
-10 19 -16 151 -31 159 -19 3 4 20 4 39 0 19 -4 50 -6 70 -5 19 1 33 -1 31 -5
-4 -6 20 -31 40 -40 10 -5 11 -9 14 -37 0 -7 8 -13 17 -13 8 0 13 -4 10 -9 -7
-11 18 -33 27 -24 4 3 7 -3 7 -15 0 -11 7 -27 15 -36 16 -16 20 -31 6 -22 -5
3 -11 -5 -13 -19 -3 -14 -2 -25 3 -25 4 0 6 -20 5 -45 -1 -25 1 -45 6 -45 4 0
2 -12 -4 -26 -9 -20 -9 -27 1 -34 8 -4 10 -13 6 -20 -6 -9 -4 -11 5 -5 10 6
12 1 7 -23 -4 -20 -1 -34 7 -41 15 -12 28 -83 14 -75 -4 3 -8 -2 -8 -10 0 -9
8 -16 18 -16 14 0 14 -2 3 -9 -9 -6 -16 -28 -17 -51 -1 -23 -9 -49 -17 -58
-23 -28 -32 -46 -17 -37 10 6 12 3 8 -13 -4 -12 -2 -22 3 -22 5 0 9 -4 9 -10
0 -5 -7 -10 -15 -10 -9 0 -12 -6 -9 -15 4 -8 2 -15 -2 -15 -5 0 -9 -13 -9 -29
0 -16 3 -27 7 -25 6 4 16 -35 17 -66 0 -8 1 -38 1 -67 2 -59 -4 -75 -26 -66
-8 3 -14 2 -13 -3 4 -16 -13 -64 -20 -59 -4 2 -8 -2 -8 -10 0 -8 3 -15 6 -15
4 0 7 -24 8 -54 1 -29 5 -62 11 -72 8 -16 8 -68 -1 -164 -2 -14 2 -34 8 -45 9
-16 7 -24 -11 -41 -13 -12 -26 -19 -30 -15 -4 3 -4 1 -1 -5 3 -6 -4 -30 -15
-54 -16 -32 -19 -45 -9 -48 9 -3 7 -10 -6 -25 -14 -17 -14 -19 -1 -9 11 9 18
10 23 2 3 -5 -2 -13 -12 -17 -28 -11 -45 -31 -32 -38 6 -4 8 -13 5 -20 -2 -7
-2 -16 2 -19 3 -4 7 -25 8 -48 2 -29 0 -38 -6 -28 -8 12 -10 10 -10 -7 0 -13
4 -23 10 -23 5 0 8 -15 6 -32 -2 -18 1 -36 6 -39 7 -4 6 -13 -1 -26 -5 -11 -8
-23 -4 -26 12 -13 10 -79 -3 -92 -8 -7 -14 -18 -14 -24 0 -6 -5 -11 -11 -11
-5 0 -7 -5 -4 -10 4 -6 2 -17 -4 -24 -6 -7 -7 -24 -2 -42 5 -18 3 -36 -3 -47
-9 -15 -6 -22 13 -38 13 -10 19 -19 13 -19 -14 0 -2 -51 14 -57 9 -3 12 -15 9
-30 -2 -14 2 -35 9 -47 17 -27 29 -76 18 -76 -4 0 -8 -9 -8 -19 0 -11 4 -17 8
-15 4 3 8 0 8 -6 0 -15 -26 -41 -34 -33 -16 17 -3 -21 14 -39 22 -24 27 -78 8
-78 -8 0 -13 -14 -14 -33 -1 -44 -12 -116 -20 -129 -4 -7 -2 -8 4 -4 8 5 8 -2
1 -24 -6 -16 -15 -27 -20 -24 -5 3 -9 1 -9 -5 0 -5 6 -14 14 -18 13 -8 38
-142 27 -141 -19 2 -24 -4 -11 -12 13 -9 13 -12 -2 -24 -10 -7 -18 -20 -18
-29 0 -9 -5 -19 -11 -22 -6 -4 -8 -13 -5 -21 3 -8 0 -14 -6 -14 -7 0 -6 -5 2
-15 10 -12 10 -15 0 -15 -8 0 -11 -14 -8 -45 3 -28 1 -46 -7 -49 -7 -2 -11
-22 -9 -50 1 -25 -2 -48 -7 -52 -6 -4 -6 -11 1 -19 7 -8 9 -19 5 -25 -3 -5 -2
-10 2 -10 5 0 7 -24 4 -52 -2 -29 -4 -63 -5 -75 0 -13 -4 -23 -7 -23 -8 0 2
-63 12 -76 6 -7 3 -25 -5 -46 -9 -20 -11 -40 -6 -48 4 -7 7 -26 5 -42 -3 -16
0 -26 5 -23 6 4 10 2 10 -2 0 -13 -53 -41 -68 -36 -7 3 -19 0 -27 -7 -7 -6
-27 -12 -44 -12 -17 -1 -31 -5 -31 -10 0 -5 -20 -6 -47 -2 -27 4 -58 8 -70 8
-12 1 -24 4 -28 8 -4 4 -18 3 -32 -3 -13 -5 -22 -5 -19 0 3 5 -6 11 -20 14
-16 3 -28 -1 -31 -9 -4 -10 -10 -11 -24 -3 -10 5 -19 6 -19 2 0 -9 -127 -9
-137 0 -3 4 -13 1 -21 -6 -12 -10 -16 -9 -20 2 -3 10 -10 8 -24 -10 -15 -18
-18 -20 -14 -5 5 13 2 17 -9 12 -8 -3 -15 -1 -15 4 0 6 -7 10 -15 10 -8 0 -15
3 -15 8 0 4 -16 8 -36 10 -21 1 -43 10 -51 20 -9 10 -12 11 -7 2 5 -12 4 -13
-6 -3 -10 9 -19 9 -42 -3 -23 -12 -33 -13 -44 -3 -8 6 -17 9 -21 6 -3 -4 -14
-2 -24 4 -13 7 -19 6 -19 -1 0 -6 -5 -8 -10 -5 -6 4 -22 -1 -37 -10 -14 -9
-23 -12 -19 -7 3 6 1 14 -5 18 -6 3 -15 1 -19 -6 -5 -8 -9 -8 -13 4 -4 10 -13
13 -23 9 -13 -5 -15 -3 -9 7 6 9 4 12 -6 8 -10 -4 -24 7 -38 28 -13 19 -27 31
-32 28 -16 -9 -10 8 9 25 17 16 25 61 10 61 -13 0 -9 50 5 51 10 0 10 2 0 6
-7 2 -13 11 -13 19 0 8 -7 17 -15 20 -9 4 -15 19 -15 40 0 20 -5 34 -12 34 -7
0 -5 5 5 11 12 7 17 20 16 37 -2 15 0 33 4 40 5 6 5 17 1 23 -17 29 -16 81 4
102 16 17 20 34 18 72 -2 28 2 56 7 63 6 8 6 12 -2 12 -8 0 -9 22 -2 48 1 1 0
4 -1 6 -2 2 5 13 15 23 9 11 14 23 10 27 -4 4 -1 11 7 16 11 7 12 12 4 20 -12
12 -7 60 5 60 4 0 8 7 8 15 0 8 -3 12 -7 10 -10 -6 -7 68 2 75 10 8 -11 80
-23 80 -6 0 -8 9 -4 20 7 23 -20 58 -29 37 -3 -6 -4 1 -3 18 1 21 8 31 25 35
13 3 23 8 22 13 0 4 8 19 17 34 22 34 24 104 3 120 -8 7 -27 13 -41 13 -15 0
-32 6 -38 14 -8 10 -26 13 -52 11 -21 -3 -39 -1 -39 4 0 4 -17 7 -37 6 -21 -2
-46 2 -56 7 -11 5 -32 11 -48 13 -16 2 -37 11 -45 20 -11 11 -32 15 -66 14
-41 -2 -52 -7 -61 -26 -9 -19 -12 -20 -21 -8 -6 9 -25 18 -41 21 -17 2 -37 8
-45 11 -21 9 -129 10 -124 1 3 -5 -2 -8 -10 -8 -9 0 -25 -9 -36 -20 -22 -22
-40 -26 -40 -8 0 22 -39 -25 -51 -61 -6 -20 -15 -40 -20 -45 -5 -5 -3 -16 4
-25 10 -12 9 -13 -2 -6 -11 6 -13 2 -9 -18 3 -15 1 -24 -3 -21 -5 3 -9 -2 -9
-10 0 -9 -9 -32 -20 -52 -20 -35 -20 -37 -3 -50 14 -11 15 -13 3 -14 -13 -1
-13 -2 0 -13 15 -12 16 -26 10 -162 -1 -27 -1 -54 1 -60 2 -5 -2 -19 -8 -30
-13 -24 -23 -109 -14 -122 3 -5 15 -15 26 -22 l20 -13 -20 6 c-19 6 -19 5 -2
-8 16 -13 17 -14 0 -20 -15 -6 -13 -10 13 -35 16 -15 32 -26 37 -24 4 2 7 -1
7 -6 0 -6 -5 -11 -12 -11 -6 0 -8 -3 -5 -7 4 -3 1 -13 -5 -21 -13 -15 -15 -23
-25 -82 -3 -19 -9 -37 -14 -38 -5 -2 -7 -8 -3 -13 3 -5 1 -9 -4 -9 -11 0 -10
-69 1 -88 5 -7 3 -10 -6 -7 -10 4 -13 -5 -12 -42 0 -26 -5 -60 -12 -74 -7 -15
-9 -29 -6 -33 3 -3 7 -23 9 -43 3 -47 -16 -70 -66 -78 -22 -4 -44 -13 -50 -20
-8 -9 -22 -12 -42 -8 -23 5 -34 2 -45 -12 -7 -11 -13 -13 -13 -7 0 9 -5 10
-19 3 -10 -6 -21 -7 -25 -4 -3 3 -23 6 -43 6 -21 -1 -32 1 -25 4 22 8 13 21
-18 25 -31 5 -51 -6 -28 -15 7 -3 -5 -4 -27 -4 -22 1 -43 7 -47 12 -4 6 -8 0
-8 -13 0 -20 -4 -22 -22 -17 -13 4 -27 11 -32 15 -5 5 -20 4 -33 -1 -13 -5
-34 -7 -47 -3 -12 3 -30 6 -40 8 -9 1 -25 9 -35 18 -14 12 -35 14 -90 11 -60
-4 -71 -2 -71 11 0 18 -16 21 -25 6 -4 -6 -11 -8 -16 -5 -5 4 -9 1 -9 -5 0 -6
-4 -8 -10 -5 -5 3 -10 15 -10 26 0 16 -3 18 -19 10 -10 -6 -21 -8 -24 -4 -14
13 -89 14 -105 1 -12 -10 -14 -10 -8 0 6 9 1 11 -18 8 -17 -3 -26 0 -26 8 0 7
-11 18 -24 26 -16 8 -29 29 -37 56 -8 24 -16 44 -20 44 -7 0 0 97 8 120 3 8 5
23 4 33 -1 9 3 17 10 17 7 0 9 3 6 7 -4 3 -2 12 3 19 6 6 12 20 15 30 2 11 6
27 10 37 5 10 3 17 -5 17 -7 0 -10 7 -7 15 4 8 2 17 -4 21 -6 4 -6 11 2 20 6
8 9 17 6 20 -3 4 4 15 16 25 12 10 17 18 11 19 -12 0 -14 107 -3 125 13 20 21
78 11 71 -6 -3 -14 -1 -18 5 -4 8 -3 9 4 5 8 -5 12 0 12 13 0 12 -5 21 -11 21
-8 0 -7 5 2 16 9 11 9 18 2 22 -15 9 -20 63 -8 82 5 8 10 18 11 23 1 4 3 8 4
10 1 1 3 16 4 32 1 17 8 41 15 54 10 18 10 22 1 16 -10 -6 -11 -1 -6 19 4 17
2 34 -5 42 -7 8 -7 14 -2 14 6 0 9 14 7 30 -3 21 1 30 11 30 11 0 14 11 11 49
-3 27 -9 58 -14 68 -7 15 -8 70 -3 213 1 19 3 22 11 10 5 -8 10 -12 12 -10 21
34 35 73 33 94 -3 20 0 26 10 22 8 -3 15 7 19 27 12 59 5 106 -22 148 -19 30
-19 34 -5 56 15 22 14 26 -5 53 -12 16 -18 31 -13 34 5 4 7 24 4 46 -6 41 10
75 30 63 7 -4 8 0 3 13 -5 10 -9 25 -9 32 0 6 -4 12 -9 12 -5 0 -6 5 -3 10 3
6 1 10 -5 10 -7 0 -9 7 -6 16 3 8 2 13 -3 10 -16 -10 -20 21 -6 48 8 14 11 26
8 26 -3 0 0 6 6 13 6 8 8 17 4 20 -3 4 5 15 18 26 17 14 21 22 13 32 -6 8 -11
28 -12 44 -1 20 1 25 7 17 7 -11 10 -11 22 0 8 7 25 15 38 16 13 2 32 11 42
21 21 20 32 68 17 77 -7 4 -8 2 -4 -4 4 -8 2 -10 -8 -6 -12 5 -13 9 -3 25 6
10 14 19 18 19 3 0 6 7 6 15 0 8 -4 12 -9 9 -10 -6 -6 25 5 44 5 6 5 17 1 24
-4 7 -3 8 4 4 7 -4 12 -3 12 2 0 5 -13 15 -30 22 -16 7 -30 17 -30 22 0 5 -5
6 -12 2 -8 -5 -8 -3 -2 7 11 18 12 52 0 60 -5 4 -8 18 -8 31 0 16 -11 31 -29
43 -15 11 -25 23 -23 27 3 4 1 8 -3 8 -5 0 -7 19 -5 41 3 29 1 40 -7 35 -7 -5
-9 -1 -5 8 3 9 1 16 -5 16 -9 0 -9 27 -1 50 2 3 2 8 1 13 0 4 3 7 9 7 5 0 7 6
4 14 -3 7 6 39 20 70 14 31 22 56 19 56 -3 0 -1 6 4 13 9 12 10 177 0 255 -3
25 0 48 7 55 6 7 12 41 12 76 1 35 6 66 12 70 5 3 15 33 22 66 17 81 16 78 25
100 5 11 9 37 10 57 0 27 4 38 15 38 10 0 11 3 4 8 -13 8 -10 42 4 51 5 3 8
16 7 29 -1 15 3 21 11 18 7 -3 25 7 41 22 19 17 22 24 9 19 -14 -6 -17 -4 -12
9 3 8 6 20 6 25 0 5 7 9 15 9 8 0 15 5 15 12 0 6 7 4 18 -5 10 -10 23 -17 28
-17z m-611 -150 c-3 -4 8 -6 22 -4 15 1 34 -1 43 -6 11 -6 21 -5 28 2 7 7 12
8 12 2 0 -6 13 -9 29 -8 16 1 41 -4 56 -12 14 -7 29 -13 33 -12 4 1 20 -4 35
-10 16 -7 32 -12 36 -12 4 0 6 -13 5 -30 -1 -16 2 -30 7 -30 5 0 9 -11 9 -25
0 -14 4 -25 9 -25 6 0 8 -10 6 -22 -3 -12 -1 -26 4 -32 13 -17 9 -45 -6 -50
-8 -3 -11 -11 -7 -17 3 -6 0 -15 -7 -20 -12 -7 -11 -9 1 -9 12 -1 11 -4 -4
-15 -14 -11 -19 -26 -18 -56 2 -40 1 -41 -26 -34 -15 4 -24 3 -20 -1 4 -4 3
-13 -3 -20 -6 -8 -6 -14 0 -18 6 -4 6 -18 1 -35 -6 -23 -5 -31 7 -35 13 -5 13
-10 -2 -33 -13 -19 -15 -28 -6 -31 8 -3 9 -8 2 -15 -17 -22 -18 -133 -1 -122
14 9 13 -8 -2 -23 -9 -9 -8 -12 7 -12 17 -1 18 -2 5 -13 -16 -13 -20 -45 -7
-64 5 -7 4 -13 0 -13 -5 0 -9 -11 -9 -25 0 -14 6 -25 13 -25 20 0 16 -27 -6
-42 -14 -10 -17 -18 -10 -28 16 -27 9 -39 -23 -42 -31 -3 -53 -29 -71 -81 -1
-5 -14 -10 -29 -10 -14 -1 -26 -6 -25 -12 1 -5 -11 -9 -28 -7 -16 2 -46 4 -65
5 -19 1 -40 5 -47 10 -6 4 -14 1 -16 -5 -3 -8 -6 -6 -6 4 -1 15 -5 16 -28 7
-26 -11 -60 -18 -90 -21 -7 -1 -13 -6 -13 -12 0 -6 -5 -3 -11 7 -9 15 -18 17
-45 12 -23 -4 -34 -2 -34 6 0 6 -8 9 -20 6 -11 -3 -18 -1 -14 4 3 5 -2 9 -10
9 -9 0 -16 -5 -16 -11 0 -5 -4 -8 -9 -5 -5 3 -14 -1 -21 -9 -13 -15 -35 -11
-25 5 3 5 -4 11 -15 15 -11 4 -18 10 -15 15 3 4 -4 6 -15 3 -11 -3 -20 -9 -20
-13 0 -4 -17 -7 -37 -6 -21 1 -48 -2 -61 -8 -16 -6 -26 -6 -34 2 -16 16 -41
16 -32 0 5 -7 2 -9 -8 -5 -9 3 -19 2 -24 -3 -8 -8 -52 -15 -64 -10 -20 7 -50
9 -50 2 0 -4 -28 -6 -62 -5 -82 3 -92 -1 -77 -28 7 -13 7 -19 1 -15 -6 4 -16
-2 -22 -11 -10 -16 -11 -16 -6 -1 3 12 1 15 -10 11 -8 -3 -12 -13 -9 -22 2 -9
-2 -29 -10 -45 -8 -15 -15 -38 -15 -50 0 -12 -5 -27 -12 -34 -9 -9 -9 -12 1
-12 10 0 10 -4 3 -13 -7 -8 -7 -17 2 -30 7 -9 11 -28 8 -42 -2 -15 0 -25 7
-25 7 0 10 -4 7 -8 -3 -5 6 -20 20 -35 14 -15 20 -27 14 -27 -6 0 -8 -5 -5
-10 4 -6 11 -8 16 -5 5 4 9 -1 9 -9 0 -9 6 -16 13 -17 10 0 10 -2 0 -6 -7 -2
-13 -9 -13 -13 0 -14 89 -6 95 8 3 8 10 10 17 5 15 -9 28 -12 83 -18 22 -3 52
-8 67 -11 17 -4 41 0 61 9 18 9 46 15 63 15 17 -1 37 3 44 7 9 5 11 4 6 -3 -8
-13 20 -6 41 10 6 5 14 5 17 0 5 -9 31 -9 56 1 60 24 112 36 138 31 16 -3 32
-1 36 4 4 7 22 2 49 -12 49 -26 110 -48 103 -38 -2 4 8 8 22 8 15 1 21 -1 15
-3 -10 -4 -9 -8 1 -19 17 -17 56 -19 56 -3 0 8 5 8 15 -1 8 -7 21 -10 30 -7 8
4 17 2 20 -4 4 -5 10 -7 15 -4 5 3 11 -4 15 -15 4 -11 10 -18 14 -16 4 3 8 -3
9 -12 1 -9 3 -26 6 -37 2 -11 -1 -26 -7 -33 -8 -10 -7 -16 5 -23 15 -8 15 -13
2 -44 -8 -19 -11 -35 -8 -35 4 0 2 -6 -4 -13 -6 -7 -7 -18 -3 -26 5 -7 6 -21
4 -31 -3 -10 0 -26 5 -36 7 -13 6 -22 -4 -32 -18 -17 -15 -82 3 -89 11 -4 11
-8 -1 -17 -12 -8 -15 -30 -13 -93 1 -45 5 -85 10 -89 4 -4 7 -18 7 -30 0 -13
4 -25 9 -28 5 -4 5 -22 0 -43 -5 -21 -9 -57 -9 -80 0 -23 -4 -44 -9 -47 -8 -5
-10 -17 -14 -90 -1 -19 -5 -32 -9 -30 -4 3 -8 1 -8 -5 0 -6 -12 -14 -27 -17
-16 -4 -32 -9 -38 -13 -11 -6 -17 -8 -42 -10 -14 -1 -15 -3 -5 -10 11 -7 10
-10 -3 -15 -26 -9 -57 -7 -50 4 3 6 2 10 -4 10 -5 0 -12 -6 -14 -12 -4 -10 -8
-10 -14 -1 -4 6 -23 10 -40 8 -19 -1 -33 2 -33 9 0 6 -7 3 -15 -8 -20 -26 -64
-47 -108 -50 -21 -2 -43 -8 -49 -14 -15 -15 -43 -15 -68 0 -15 10 -22 9 -38
-5 -23 -21 -32 -22 -32 -1 0 14 -3 14 -15 4 -9 -7 -18 -10 -22 -7 -3 4 -12 2
-20 -5 -7 -6 -17 -8 -20 -4 -4 4 -1 11 7 16 8 6 10 10 5 10 -6 0 -17 -6 -24
-12 -11 -11 -13 -10 -8 5 5 12 3 16 -5 11 -7 -5 -9 -2 -5 9 4 11 2 14 -8 10
-8 -3 -12 -9 -9 -14 7 -13 -16 -10 -51 5 -33 14 -71 8 -111 -19 -21 -13 -23
-13 -18 0 9 22 -4 18 -30 -10 -23 -25 -56 -34 -56 -15 0 6 -4 10 -10 10 -5 0
-10 -7 -10 -15 0 -18 -20 -20 -20 -2 0 7 -7 4 -15 -7 -11 -14 -15 -16 -15 -5
-1 10 -4 9 -15 -5 -8 -10 -11 -24 -7 -30 3 -6 7 -18 9 -26 1 -8 8 -19 15 -25
9 -7 13 -35 12 -88 0 -43 3 -80 7 -83 4 -2 6 -14 3 -27 -2 -12 0 -35 6 -52 17
-53 27 -174 16 -185 -12 -12 -15 -180 -3 -180 4 0 5 -11 3 -24 -3 -14 2 -30
10 -37 7 -6 12 -15 9 -19 -3 -4 2 -13 10 -20 8 -7 15 -18 15 -24 0 -6 7 -24
15 -40 9 -17 12 -33 6 -40 -4 -6 -8 -18 -9 -26 -1 -33 -19 -120 -26 -127 -3
-3 -1 -16 4 -29 7 -17 6 -24 -3 -24 -8 0 -7 -4 3 -10 8 -5 11 -10 5 -10 -5 0
-2 -5 8 -11 15 -9 16 -13 5 -26 -7 -9 -13 -19 -13 -22 0 -3 -5 -5 -12 -3 -7 2
-13 -2 -13 -8 0 -6 -6 -10 -12 -9 -26 3 -38 -2 -59 -23 -12 -13 -19 -17 -15
-10 4 7 1 12 -8 12 -9 0 -16 -4 -16 -10 0 -5 -6 -10 -13 -10 -19 0 -49 -35
-40 -45 5 -4 -2 -1 -14 6 -19 11 -27 11 -43 1 -22 -14 -33 -16 -27 -4 3 4 -5
8 -16 9 -41 3 -62 8 -70 18 -6 6 -10 6 -14 -2 -7 -19 -23 -16 -24 5 0 11 -2
12 -6 4 -4 -10 -10 -9 -25 4 -16 15 -21 16 -28 5 -4 -8 -15 -11 -25 -8 -9 4
-14 3 -12 -1 3 -4 -11 -14 -29 -23 -19 -9 -34 -12 -34 -6 0 5 -8 1 -17 -10
-19 -21 -37 -20 -64 4 -14 12 -17 12 -23 -3 -4 -9 -9 -14 -13 -10 -3 3 -18 -1
-31 -10 -23 -15 -25 -15 -19 -1 3 9 2 19 -4 22 -5 4 -12 0 -15 -9 -3 -8 -12
-12 -21 -9 -8 3 -19 0 -23 -7 -7 -11 -12 -10 -25 3 -12 12 -28 16 -58 12 -23
-2 -46 -4 -50 -4 -5 -1 -5 -5 -2 -11 4 -6 -6 -7 -27 -3 -18 4 -45 7 -60 7 -15
0 -25 3 -23 6 2 4 -9 17 -26 29 -17 13 -28 29 -25 36 3 8 -2 15 -11 17 -15 3
-15 5 1 21 12 11 13 17 5 17 -10 0 -10 3 -1 12 8 8 8 15 1 24 -7 8 -7 14 1 19
8 5 7 11 -1 22 -8 9 -9 17 -3 21 15 10 25 42 13 42 -9 0 -5 68 5 78 2 2 0 17
-4 33 -7 24 -6 29 8 29 12 0 13 3 5 11 -8 8 -7 20 3 45 10 24 11 34 3 34 -8 0
-8 4 1 15 7 9 8 15 2 15 -5 0 -8 9 -5 20 4 13 -1 26 -12 34 -12 8 -18 25 -17
47 0 18 -3 38 -8 44 -5 7 -8 21 -6 32 3 11 0 40 -6 64 -5 24 -11 49 -12 54 -1
6 -5 16 -10 23 -4 7 -2 19 4 27 10 12 9 15 -10 15 -17 0 -20 4 -14 18 9 21 7
73 -3 81 -11 8 -12 51 -1 45 4 -3 8 4 8 15 0 11 9 25 20 31 11 6 17 17 14 24
-3 8 -1 24 5 35 9 16 8 22 -5 29 -9 5 -16 26 -18 56 -2 27 -9 52 -16 56 -9 5
-9 9 -1 14 6 4 16 16 22 28 9 16 8 19 -3 12 -10 -6 -11 -5 -1 7 12 15 13 83 1
94 -4 4 -4 14 -1 23 4 10 2 13 -5 8 -17 -10 -15 16 4 42 8 12 11 22 6 22 -5 0
-9 6 -9 13 -3 42 -12 99 -17 104 -3 4 2 15 11 25 20 22 26 48 11 48 -6 0 -8
14 -5 34 3 20 0 45 -9 62 -12 22 -12 29 -2 35 10 7 9 16 -6 44 -11 19 -17 38
-14 41 3 3 2 21 -3 42 -5 23 -4 41 3 49 10 13 1 18 -29 14 -7 -1 -9 7 -6 18 3
11 8 20 12 19 27 -3 33 3 15 17 -10 8 -14 15 -8 15 12 0 15 30 3 30 -9 0 -5
42 5 59 4 6 2 18 -4 26 -10 12 -10 15 0 15 7 0 3 14 -11 37 -19 30 -20 36 -6
30 9 -3 17 -2 17 3 0 6 -4 10 -8 10 -4 0 -9 10 -9 23 -1 12 -5 32 -8 45 -3 14
-1 22 7 22 10 0 10 2 0 9 -8 5 -11 21 -9 44 3 21 0 37 -6 37 -6 0 -8 3 -4 6 3
4 -1 13 -9 21 -8 8 -12 19 -8 24 3 5 -2 16 -10 25 -17 17 -21 44 -7 44 5 0 12
7 15 16 4 10 2 13 -7 8 -6 -4 -3 3 8 15 14 16 20 37 20 71 0 26 -3 46 -7 43
-8 -4 -10 1 -11 35 -1 9 -6 20 -12 24 -6 5 -5 8 4 8 11 0 10 5 -5 21 -18 20
-28 69 -14 69 4 0 6 20 5 45 -2 31 1 43 9 38 6 -4 4 1 -4 11 -8 10 -15 24 -16
31 -1 7 -5 23 -9 35 -5 14 -3 20 3 16 6 -4 8 2 5 14 -3 11 -1 20 4 20 11 0 4
68 -8 76 -15 9 -10 24 9 24 14 0 15 2 2 10 -14 9 -7 15 14 11 4 -1 6 23 4 54
-2 31 0 59 5 62 5 3 3 9 -4 14 -10 6 -10 9 -2 9 7 0 10 7 6 16 -3 8 -11 13
-18 11 -14 -6 -15 0 -16 115 -1 47 2 92 7 99 4 8 2 15 -5 17 -11 4 -11 6 0 12
9 6 10 12 2 22 -15 19 -23 58 -11 58 6 0 7 8 3 18 -12 30 -15 92 -4 92 6 0 7
5 4 10 -4 6 -2 16 3 23 10 12 12 18 12 38 0 5 4 8 9 4 5 -3 16 2 24 10 9 8 32
16 51 17 20 2 36 7 36 11 0 5 4 6 9 2 5 -3 12 -1 16 5 10 16 25 12 19 -5 -5
-13 -2 -14 20 -5 14 5 26 7 26 4 0 -3 6 -2 13 3 18 11 38 13 32 2 -3 -4 16 -6
42 -4 29 2 50 -1 55 -8 5 -8 12 -6 26 6 17 16 20 16 32 2 10 -12 16 -13 26 -4
8 6 14 9 14 5 0 -4 14 0 30 9 20 10 30 12 30 4 0 -7 7 -8 18 -4 9 3 19 7 22 8
3 1 6 -2 7 -8 2 -13 45 -24 58 -14 6 4 28 7 50 7 22 0 56 0 75 0 19 1 46 0 60
-1 14 -1 38 2 53 6 19 5 27 4 22 -3 -9 -15 64 -16 75 -1 11 17 50 24 137 26
60 2 91 -1 87 -7 -4 -7 5 -7 27 -2 45 10 66 12 116 13 23 1 48 8 57 16 12 12
20 13 34 6 11 -6 22 -8 24 -5 3 3 18 7 33 10 16 3 36 9 45 14 20 11 72 3 81
-12 11 -17 89 -10 126 11 10 5 24 6 33 1 14 -8 86 -15 103 -10 4 2 12 3 17 4
6 0 14 7 19 14 5 8 28 13 59 14 29 0 50 4 47 8 -3 4 17 8 45 7 27 0 47 -3 45
-7z"/>
</g>
</svg>
